if (_typeface_js && _typeface_js.loadFace) _typeface_js.loadFace({"glyphs":{"¦":{"x_min":301,"x_max":394,"ha":695,"o":"m 301 906 l 394 906 l 394 410 l 301 410 l 301 906 m 394 -210 l 301 -210 l 301 272 l 394 272 l 394 -210 "},"Ő":{"x_min":40,"x_max":654,"ha":695,"o":"m 352 -14 q 224 18 281 -14 q 125 110 166 51 q 62 252 84 169 q 40 434 40 334 q 62 616 40 534 q 127 755 85 698 q 227 843 169 812 q 355 875 285 875 q 469 848 416 875 q 565 768 522 822 q 631 631 609 715 q 654 433 654 548 q 627 222 654 308 q 558 84 601 137 q 461 8 515 31 q 352 -14 408 -14 m 208 159 q 352 82 273 82 q 426 97 390 82 q 492 154 462 113 q 539 262 522 194 q 557 435 557 330 q 537 604 557 538 q 488 709 518 670 q 425 765 458 748 q 355 783 393 783 q 276 767 312 784 q 208 713 240 751 q 156 610 176 676 q 136 442 136 545 q 156 273 136 347 q 208 159 176 199 m 571 1125 l 635 1036 l 433 896 l 389 952 l 571 1125 m 323 1125 l 389 1036 l 186 896 l 142 952 l 323 1125 "},"Ž":{"x_min":70,"x_max":643,"ha":695,"o":"m 87 865 l 621 865 l 621 796 l 192 86 l 600 86 q 621 90 609 86 q 643 94 633 94 l 643 0 l 70 0 l 70 67 l 505 777 l 87 777 l 87 865 m 550 1048 l 368 910 l 337 910 l 167 1046 l 212 1099 l 355 1000 l 511 1094 l 550 1048 "},"Á":{"x_min":20.75,"x_max":670.8125,"ha":695,"o":"m 20 0 l 326 881 l 337 881 l 670 0 l 570 0 l 474 253 l 200 253 l 116 0 l 20 0 m 452 328 l 330 658 l 219 328 l 452 328 m 429 1099 l 485 1001 l 249 917 l 218 975 l 429 1099 "},"Î":{"x_min":112,"x_max":559,"ha":695,"o":"m 122 865 l 551 865 l 551 784 l 380 784 l 380 78 l 559 78 l 559 -1 l 112 -1 l 112 80 l 283 80 l 283 784 l 122 784 l 122 865 m 141 961 l 322 1099 l 353 1099 l 524 962 l 478 909 l 335 1008 l 179 914 l 141 961 "},"e":{"x_min":68,"x_max":618,"ha":695,"o":"m 359 650 q 456 631 409 650 q 539 577 504 613 q 596 483 574 540 q 618 348 618 426 q 617 325 618 337 q 615 303 616 314 l 164 303 q 186 191 166 236 q 237 118 207 146 q 305 78 268 90 q 380 67 343 67 q 544 137 479 67 l 600 82 q 377 -14 519 -14 q 250 7 308 -14 q 152 70 193 29 q 90 174 112 112 q 68 315 68 236 q 90 458 68 395 q 153 563 113 520 q 245 627 193 605 q 359 650 298 650 m 168 381 l 516 381 q 517 391 516 386 q 518 403 518 396 q 504 469 518 437 q 469 523 491 500 q 417 560 447 546 q 352 574 387 574 q 234 527 287 574 q 168 381 182 480 "},"»":{"x_min":94.28125,"x_max":620,"ha":695,"o":"m 369 351 l 369 319 l 149 84 l 94 139 l 272 334 l 104 498 l 158 555 l 369 351 m 620 351 l 620 319 l 400 84 l 346 139 l 523 334 l 355 498 l 409 555 l 620 351 "},"ò":{"x_min":56,"x_max":639,"ha":695,"o":"m 353 649 q 463 626 411 649 q 554 560 515 603 q 616 455 593 516 q 639 316 639 393 q 616 177 639 238 q 555 72 594 116 q 464 5 516 28 q 351 -17 411 -17 q 237 8 290 -17 q 143 76 183 33 q 79 181 103 120 q 56 313 56 243 q 80 447 56 384 q 145 553 104 509 q 240 623 186 597 q 353 649 294 649 m 539 313 q 523 420 539 373 q 480 498 507 466 q 420 547 454 530 q 349 564 386 564 q 277 547 311 564 q 218 498 243 530 q 177 421 192 466 q 162 319 162 376 q 177 217 162 263 q 218 138 192 171 q 278 87 243 105 q 351 69 313 69 q 424 84 390 69 q 484 132 458 100 q 524 209 509 163 q 539 313 539 255 m 337 971 l 460 766 l 390 725 l 250 912 l 337 971 "},"ţ":{"x_min":97,"x_max":617,"ha":695,"o":"m 478 -151 q 412 -118 478 -118 l 372 -118 l 386 -10 q 312 11 341 -4 q 265 60 283 27 q 239 143 247 93 q 232 268 232 193 q 235 398 232 327 q 245 554 238 470 l 97 554 l 97 635 l 250 635 l 261 804 l 369 822 q 366 800 369 810 q 361 785 362 790 l 344 635 l 553 635 l 553 554 l 344 554 q 332 322 332 430 q 334 209 332 255 q 349 135 337 163 q 383 94 361 106 q 443 82 406 82 q 586 137 508 82 l 617 57 q 446 -10 536 1 l 440 -65 l 462 -66 q 557 -142 557 -73 q 517 -213 557 -181 q 396 -246 477 -246 q 242 -194 314 -246 l 276 -136 q 415 -186 336 -186 q 464 -175 450 -186 q 478 -151 478 -165 "},"^":{"x_min":129.265625,"x_max":559.84375,"ha":695,"o":"m 129 509 l 341 865 l 372 865 l 559 510 l 486 476 l 351 719 l 198 476 l 129 509 "},"«":{"x_min":93,"x_max":619.71875,"ha":695,"o":"m 346 351 l 555 555 l 610 498 l 442 334 l 619 139 l 564 84 l 346 319 l 346 351 m 93 351 l 303 555 l 358 498 l 190 334 l 367 139 l 312 84 l 93 319 l 93 351 "},"í":{"x_min":138,"x_max":550,"ha":695,"o":"m 147 635 l 401 635 l 401 81 l 550 81 l 550 0 l 138 0 l 138 81 l 301 81 l 301 554 l 147 554 l 147 635 m 394 971 l 482 912 l 341 725 l 272 766 l 394 971 "},"ˆ":{"x_min":186,"x_max":524,"ha":695,"o":"m 186 756 l 340 951 l 371 951 l 524 755 l 460 706 l 351 849 l 238 708 l 186 756 "},"ȷ":{"x_min":67,"x_max":513,"ha":695,"o":"m 175 635 l 513 635 l 513 30 q 493 -92 513 -41 q 440 -175 474 -143 q 360 -223 406 -207 q 261 -242 314 -239 q 67 -153 139 -242 l 132 -67 q 139 -80 139 -73 q 144 -96 140 -87 q 161 -114 149 -104 q 203 -140 174 -125 q 269 -156 234 -156 q 372 -113 332 -156 q 413 24 413 -71 l 413 554 l 175 554 l 175 635 "},"µ":{"x_min":33,"x_max":686,"ha":695,"o":"m 517 162 q 572 67 517 67 q 611 83 591 67 q 640 116 631 99 l 648 133 l 686 62 q 563 -14 634 -14 q 487 17 519 -14 q 450 93 455 48 q 378 12 426 38 q 279 -14 330 -14 q 183 10 227 -14 q 120 83 139 34 q 120 -74 120 4 q 119 -232 120 -152 l 33 -232 q 35 -173 33 -212 q 40 -86 37 -134 q 47 16 44 -37 q 54 120 51 70 q 58 213 56 170 q 61 280 61 255 l 61 635 l 153 635 l 153 258 q 164 163 153 200 q 193 104 175 126 q 237 72 212 82 q 287 60 261 62 q 339 74 314 62 q 384 109 364 86 q 416 168 404 132 q 428 254 428 204 l 428 266 l 428 635 l 517 635 l 517 162 "},"č":{"x_min":78,"x_max":635,"ha":695,"o":"m 635 528 l 564 447 q 557 456 557 451 q 556 469 558 460 q 546 489 554 477 q 512 523 537 502 q 383 562 465 562 q 306 545 343 562 q 242 497 269 528 q 197 423 214 466 q 181 325 181 379 q 197 226 181 271 q 243 147 214 180 q 312 95 272 114 q 401 77 353 77 q 566 153 497 77 l 625 84 q 393 -15 530 -15 q 267 9 325 -15 q 167 79 209 34 q 101 184 125 123 q 78 316 78 244 q 101 448 78 387 q 167 553 125 509 q 268 622 209 597 q 397 647 328 647 q 534 615 472 647 q 635 528 596 584 m 524 914 l 369 720 l 339 720 l 186 915 l 249 964 l 358 821 l 471 962 l 524 914 "},"’":{"x_min":229,"x_max":425,"ha":695,"o":"m 425 770 q 276 510 425 661 l 229 551 q 293 629 267 587 q 319 697 319 670 q 307 723 319 711 q 282 747 296 736 q 258 772 268 758 q 248 804 248 786 q 270 862 248 838 q 330 886 293 886 q 395 854 366 886 q 425 770 425 822 "},"-":{"x_min":99,"x_max":599,"ha":695,"o":"m 99 483 l 599 483 l 599 390 l 99 390 l 99 483 "},"Q":{"x_min":40,"x_max":654,"ha":695,"o":"m 206 713 q 134 448 134 631 q 148 296 134 364 q 191 180 163 228 q 262 103 220 131 q 355 76 305 76 q 426 93 389 76 q 494 150 463 110 q 542 253 524 189 q 561 407 561 316 q 541 598 561 524 q 487 713 522 671 q 417 771 453 755 q 348 787 381 787 q 270 766 306 787 q 206 713 234 745 m 654 431 q 589 128 654 240 q 399 -10 525 17 q 422 -84 401 -55 q 501 -114 443 -114 q 523 -112 508 -114 q 557 -110 539 -111 q 591 -108 575 -109 q 614 -107 607 -107 l 611 -202 l 557 -202 q 442 -195 489 -202 q 367 -163 395 -188 q 326 -101 339 -138 q 314 -10 314 -64 q 212 26 261 -3 q 124 110 163 56 q 62 243 85 165 q 40 427 40 322 q 69 644 40 558 q 145 780 99 730 q 245 852 191 830 q 348 875 299 875 q 462 849 408 875 q 563 770 517 824 q 631 633 608 715 q 654 431 654 551 "},"M":{"x_min":57,"x_max":639,"ha":695,"o":"m 57 865 l 133 865 l 347 441 l 565 866 l 639 866 l 639 0 l 547 0 l 547 652 l 359 304 l 322 304 l 147 648 l 147 0 l 57 0 l 57 865 "},"œ":{"x_min":8,"x_max":686,"ha":695,"o":"m 223 647 q 353 583 306 647 q 493 647 407 647 q 630 583 581 647 q 680 393 680 519 l 680 307 l 363 307 q 373 184 364 231 q 401 111 382 136 q 444 75 420 86 q 503 64 468 64 q 637 118 588 64 l 686 58 q 516 -17 612 -17 q 350 39 420 -17 q 213 -15 289 -15 q 142 0 178 -15 q 76 50 106 14 q 27 152 46 87 q 8 316 8 216 q 25 471 8 408 q 73 573 42 534 q 142 629 105 612 q 223 647 180 647 m 364 388 l 598 388 l 598 400 q 566 535 598 499 q 475 571 534 571 q 394 526 424 571 q 364 400 364 482 l 364 388 m 222 564 q 174 551 197 564 q 132 511 152 539 q 102 439 113 483 q 91 332 91 396 q 127 134 91 199 q 225 70 163 70 q 274 84 253 70 q 295 124 295 99 q 290 156 295 128 q 279 249 282 204 q 277 330 277 293 q 283 452 277 411 q 289 502 289 493 q 270 546 289 529 q 222 564 250 564 "},"ě":{"x_min":68,"x_max":618,"ha":695,"o":"m 359 650 q 456 631 409 650 q 539 577 504 613 q 596 483 574 540 q 618 348 618 426 q 617 325 618 337 q 615 303 616 314 l 164 303 q 186 191 166 236 q 237 118 207 146 q 305 78 268 90 q 380 67 343 67 q 544 137 479 67 l 600 82 q 377 -14 519 -14 q 250 7 308 -14 q 152 70 193 29 q 90 174 112 112 q 68 315 68 236 q 90 458 68 395 q 153 563 113 520 q 245 627 193 605 q 359 650 298 650 m 168 381 l 516 381 q 517 391 516 386 q 518 403 518 396 q 504 469 518 437 q 469 523 491 500 q 417 560 447 546 q 352 574 387 574 q 234 527 287 574 q 168 381 182 480 m 524 914 l 369 720 l 339 720 l 186 915 l 249 964 l 358 821 l 471 962 l 524 914 "},"{":{"x_min":74,"x_max":566.390625,"ha":695,"o":"m 221 22 l 226 161 q 193 285 226 253 q 101 317 161 317 l 74 317 l 74 395 l 100 395 q 196 429 164 395 q 229 543 229 464 l 226 643 q 479 885 226 885 l 566 885 l 566 804 l 452 804 q 323 657 323 804 l 326 560 q 205 356 326 407 q 325 140 325 317 l 321 23 q 361 -106 321 -70 q 494 -143 402 -143 l 565 -143 l 565 -221 l 515 -221 q 395 -216 448 -221 q 298 -179 341 -211 q 221 22 221 -118 "},"¼":{"x_min":7,"x_max":662,"ha":695,"o":"m 106 -21 l 540 924 l 607 886 l 171 -58 l 106 -21 m 549 336 l 593 336 l 593 62 l 662 62 l 662 11 l 593 11 l 593 -97 l 529 -97 l 529 11 l 327 11 l 327 50 l 549 336 m 530 227 l 399 62 l 530 62 l 530 227 m 203 940 l 203 519 l 132 519 l 132 852 l 25 825 l 7 859 l 155 940 l 203 940 "},"#":{"x_min":34,"x_max":661.328125,"ha":695,"o":"m 240 867 l 324 869 l 295 632 l 448 632 l 476 864 l 562 865 l 534 634 l 661 634 l 653 569 l 526 569 l 497 335 l 634 335 l 628 272 l 490 272 l 459 19 l 375 14 l 405 268 l 251 268 l 221 19 l 140 18 l 169 265 l 34 265 l 39 328 l 177 328 l 205 565 l 54 565 l 58 629 l 212 629 l 240 867 m 287 567 l 259 331 l 412 331 l 441 567 l 287 567 "},"Ê":{"x_min":82,"x_max":612,"ha":695,"o":"m 82 867 l 612 867 l 612 781 l 174 781 l 174 496 l 536 496 l 536 407 l 174 407 l 174 86 l 608 86 l 608 0 l 82 0 l 82 867 m 154 961 l 335 1099 l 366 1099 l 537 962 l 491 909 l 348 1008 l 192 914 l 154 961 "},")":{"x_min":100.671875,"x_max":506,"ha":695,"o":"m 109 837 l 135 924 q 288 824 218 885 q 405 688 357 764 q 479 525 453 612 q 506 347 506 438 q 478 165 506 254 q 402 0 451 77 q 283 -139 353 -76 q 127 -242 213 -201 l 100 -158 q 227 -67 171 -121 q 323 51 283 -14 q 384 191 363 117 q 406 343 406 265 q 384 494 406 420 q 324 632 363 568 q 230 748 285 696 q 109 837 175 801 "},"Å":{"x_min":20.75,"x_max":670.8125,"ha":695,"o":"m 335 1046 q 294 1027 311 1046 q 277 981 277 1009 q 294 936 277 954 q 335 918 311 918 q 375 936 358 918 q 392 981 392 954 q 375 1027 392 1009 q 335 1046 358 1046 m 452 328 l 330 658 l 219 328 l 452 328 m 344 860 l 670 0 l 570 0 l 474 253 l 200 253 l 116 -1 l 20 -1 l 319 860 q 238 900 271 865 q 206 983 206 934 q 215 1029 206 1008 q 242 1067 225 1051 q 283 1094 260 1084 q 333 1104 307 1104 q 382 1094 360 1104 q 423 1067 405 1084 q 450 1029 440 1051 q 460 983 460 1008 q 427 899 460 934 q 344 860 394 864 "},"¸":{"x_min":218,"x_max":533,"ha":695,"o":"m 454 -151 q 388 -118 454 -118 l 346 -118 l 362 0 l 423 0 l 414 -65 l 438 -66 q 533 -142 533 -73 q 493 -213 533 -181 q 372 -246 453 -246 q 218 -194 290 -246 l 252 -136 q 390 -186 312 -186 q 440 -175 426 -186 q 454 -151 454 -165 "},"a":{"x_min":68,"x_max":604,"ha":695,"o":"m 126 559 q 352 649 210 649 q 536 589 469 649 q 604 393 604 530 l 604 0 l 509 0 l 509 69 q 281 -15 408 -15 q 192 0 231 -15 q 124 40 152 15 q 82 97 97 65 q 68 161 68 129 q 150 312 68 257 q 388 374 233 368 l 508 374 l 508 397 q 468 530 508 492 q 345 568 428 568 q 174 496 242 568 l 126 559 m 512 297 l 488 297 q 451 298 469 297 q 417 299 434 299 q 292 288 341 299 q 216 260 244 278 q 178 218 188 241 q 168 169 168 196 q 206 93 168 125 q 302 61 245 61 q 377 74 344 61 q 435 106 410 87 q 476 145 460 125 q 498 180 491 165 q 512 255 512 208 l 512 297 "},"Ę":{"x_min":82,"x_max":612,"ha":695,"o":"m 82 867 l 612 867 l 612 781 l 174 781 l 174 496 l 536 496 l 536 407 l 174 407 l 174 86 l 608 86 l 606 0 q 490 -141 490 -103 q 501 -168 490 -157 q 527 -180 512 -180 q 608 -148 569 -180 l 608 -212 q 516 -244 571 -244 q 432 -219 460 -244 q 404 -159 404 -195 q 513 0 404 -88 l 82 0 l 82 867 "},"=":{"x_min":63,"x_max":634,"ha":695,"o":"m 63 609 l 634 609 l 634 524 l 63 524 l 63 609 m 63 321 l 634 321 l 634 236 l 63 236 l 63 321 "},"˚":{"x_min":229,"x_max":483,"ha":695,"o":"m 445 925 q 483 840 483 888 q 472 792 483 815 q 444 754 462 770 q 403 727 427 737 q 355 718 380 718 q 307 727 330 718 q 267 754 284 737 q 239 792 249 770 q 229 840 229 815 q 239 887 229 864 q 267 925 249 909 q 307 952 284 942 q 355 962 330 962 q 445 925 406 962 m 356 904 q 316 885 333 904 q 300 840 300 866 q 316 794 300 813 q 356 776 333 776 q 397 794 380 776 q 415 840 415 813 q 397 885 415 866 q 356 904 380 904 "},"ú":{"x_min":85.625,"x_max":610.9375,"ha":695,"o":"m 87 635 l 187 635 l 187 281 q 198 179 187 220 q 229 113 209 138 q 275 77 249 88 q 332 66 301 66 q 396 82 365 68 q 451 122 427 96 q 490 187 476 147 q 504 285 504 228 l 504 635 l 604 635 l 604 56 q 610 0 604 25 l 506 0 q 504 21 505 9 q 504 48 502 33 l 505 97 q 422 14 474 44 q 307 -15 370 -15 q 219 2 258 -15 q 149 55 180 19 q 101 147 117 91 q 85 280 85 203 l 87 635 m 405 971 l 493 912 l 352 725 l 283 766 l 405 971 "},"¯":{"x_min":171,"x_max":524,"ha":695,"o":"m 171 863 l 524 863 l 524 785 l 171 785 l 171 863 "},"Z":{"x_min":70,"x_max":643,"ha":695,"o":"m 87 865 l 621 865 l 621 796 l 192 86 l 600 86 q 621 90 609 86 q 643 94 633 94 l 643 0 l 70 0 l 70 67 l 505 777 l 87 777 l 87 865 "},"u":{"x_min":85.625,"x_max":610.9375,"ha":695,"o":"m 87 635 l 187 635 l 187 281 q 198 179 187 220 q 229 113 209 138 q 275 77 249 88 q 332 66 301 66 q 396 82 365 68 q 451 122 427 96 q 490 187 476 147 q 504 285 504 228 l 504 635 l 604 635 l 604 56 q 610 0 604 25 l 506 0 q 504 21 505 9 q 504 48 502 33 l 505 97 q 422 14 474 44 q 307 -15 370 -15 q 219 2 258 -15 q 149 55 180 19 q 101 147 117 91 q 85 280 85 203 l 87 635 "},"k":{"x_min":92,"x_max":666,"ha":695,"o":"m 92 924 l 204 924 q 198 905 204 915 q 192 887 192 896 l 192 343 l 511 638 q 585 631 543 631 l 621 631 l 353 379 l 666 0 l 536 -5 l 275 318 l 192 240 l 192 0 l 92 0 l 92 924 "},"Ù":{"x_min":70,"x_max":631,"ha":695,"o":"m 70 865 l 179 865 q 181 862 181 865 q 175 846 181 856 q 166 820 168 835 l 166 296 q 179 184 166 224 q 218 119 193 145 q 277 81 243 93 q 350 66 311 68 q 423 79 389 68 q 483 118 457 91 q 523 185 508 145 q 538 300 538 225 l 538 865 l 631 865 l 631 302 q 612 159 631 218 q 554 62 593 101 q 464 4 515 23 q 349 -15 412 -15 q 235 4 286 -15 q 147 61 183 23 q 90 152 110 98 q 70 298 70 207 l 70 865 m 252 1099 l 465 975 l 433 917 l 197 1001 l 252 1099 "},"Ů":{"x_min":70,"x_max":631,"ha":695,"o":"m 70 865 l 179 865 q 181 862 181 865 q 175 846 181 856 q 166 820 168 835 l 166 296 q 179 184 166 224 q 218 119 193 145 q 277 81 243 93 q 350 66 311 68 q 423 79 389 68 q 483 118 457 91 q 523 185 508 145 q 538 300 538 225 l 538 865 l 631 865 l 631 302 q 612 159 631 218 q 554 62 593 101 q 464 4 515 23 q 349 -15 412 -15 q 235 4 286 -15 q 147 61 183 23 q 90 152 110 98 q 70 298 70 207 l 70 865 m 440 1067 q 478 980 478 1030 q 441 896 478 932 q 351 860 404 860 q 302 869 325 860 q 262 896 279 879 q 234 934 244 912 q 224 982 224 957 q 234 1029 224 1006 q 262 1067 244 1051 q 303 1094 279 1084 q 351 1104 326 1104 q 440 1067 401 1104 m 353 1046 q 312 1027 329 1046 q 295 981 295 1009 q 312 936 295 954 q 353 918 329 918 q 393 936 376 918 q 410 981 410 954 q 393 1027 410 1009 q 353 1046 376 1046 "},"¢":{"x_min":67,"x_max":627,"ha":695,"o":"m 396 866 l 489 856 q 483 838 489 848 q 476 817 478 827 l 462 704 q 627 597 570 683 l 565 518 q 560 535 560 522 q 554 553 560 548 q 451 620 514 602 l 387 135 q 570 213 492 135 l 620 144 q 386 46 529 46 l 375 46 l 354 -109 l 275 -99 l 294 57 q 128 172 190 86 q 67 388 67 258 q 89 511 67 454 q 153 611 112 568 q 250 681 193 655 q 376 711 307 708 l 396 866 m 305 150 l 365 630 q 285 609 321 627 q 222 560 249 591 q 181 489 195 530 q 167 399 167 448 q 204 239 167 302 q 305 150 242 175 "},"Ş":{"x_min":72,"x_max":632,"ha":695,"o":"m 410 -151 q 344 -118 410 -118 l 303 -118 l 317 -14 q 72 97 165 -4 l 128 197 q 135 183 135 192 q 140 167 135 173 q 226 100 172 127 q 356 74 280 74 q 428 87 395 74 q 484 121 460 100 q 522 173 508 143 q 536 236 536 202 q 528 285 536 265 q 498 323 520 305 q 438 360 476 341 q 337 405 399 380 q 224 458 269 431 q 151 513 179 485 q 111 573 123 541 q 100 642 100 605 q 120 731 100 690 q 175 804 140 773 q 259 853 211 836 q 363 871 308 871 q 497 842 434 871 q 604 762 559 813 l 542 679 q 535 690 535 681 q 531 703 534 699 q 460 766 505 742 q 348 790 415 790 q 242 752 284 790 q 200 663 200 715 q 209 610 200 633 q 241 567 219 587 q 305 525 263 547 q 413 477 347 504 q 519 425 477 451 q 586 370 561 400 q 621 309 611 341 q 632 236 632 276 q 617 150 632 193 q 571 73 602 108 q 492 15 540 38 q 378 -14 444 -8 l 372 -65 l 394 -66 q 489 -142 489 -73 q 449 -213 489 -181 q 328 -246 409 -246 q 174 -194 246 -246 l 208 -136 q 346 -186 268 -186 q 396 -175 382 -186 q 410 -151 410 -165 "},"é":{"x_min":68,"x_max":618,"ha":695,"o":"m 359 650 q 456 631 409 650 q 539 577 504 613 q 596 483 574 540 q 618 348 618 426 q 617 325 618 337 q 615 303 616 314 l 164 303 q 186 191 166 236 q 237 118 207 146 q 305 78 268 90 q 380 67 343 67 q 544 137 479 67 l 600 82 q 377 -14 519 -14 q 250 7 308 -14 q 152 70 193 29 q 90 174 112 112 q 68 315 68 236 q 90 458 68 395 q 153 563 113 520 q 245 627 193 605 q 359 650 298 650 m 168 381 l 516 381 q 517 391 516 386 q 518 403 518 396 q 504 469 518 437 q 469 523 491 500 q 417 560 447 546 q 352 574 387 574 q 234 527 287 574 q 168 381 182 480 m 405 971 l 493 912 l 352 725 l 283 766 l 405 971 "},"↓":{"x_min":82,"x_max":613,"ha":695,"o":"m 613 282 l 353 -47 l 322 -47 l 82 285 l 151 331 l 299 130 l 299 889 l 391 889 l 391 130 l 553 331 l 613 282 "},"B":{"x_min":67,"x_max":635,"ha":695,"o":"m 67 865 l 312 865 q 442 850 387 865 q 530 806 497 835 q 581 739 563 777 q 600 655 600 701 q 566 540 600 594 q 472 464 533 486 q 538 428 508 451 q 590 376 568 406 q 623 313 612 347 q 635 243 635 279 q 557 66 635 133 q 311 0 479 0 l 67 0 l 67 865 m 163 784 l 163 507 l 299 507 q 394 517 357 507 q 455 545 432 527 q 489 589 478 564 q 503 644 500 615 q 489 699 500 674 q 457 742 479 724 q 400 772 435 761 q 314 784 365 784 l 163 784 m 163 426 l 163 85 l 328 85 q 482 131 439 85 q 532 249 526 178 q 516 320 529 288 q 478 376 504 352 q 409 413 452 400 q 304 426 365 426 l 163 426 "},"…":{"x_min":10,"x_max":653,"ha":695,"o":"m 629 121 q 653 64 653 94 q 629 8 653 32 q 571 -15 605 -15 q 512 7 536 -15 q 489 64 489 30 q 514 121 489 97 q 571 145 539 145 q 629 121 602 145 m 150 121 q 174 64 174 94 q 150 8 174 32 q 92 -15 126 -15 q 32 8 55 -15 q 10 64 10 32 q 34 120 10 96 q 92 145 58 145 q 150 121 123 145 m 389 121 q 414 64 414 96 q 389 8 414 32 q 330 -15 365 -15 q 272 7 296 -15 q 249 64 249 30 q 273 121 249 97 q 330 145 298 145 q 389 121 362 145 "},"H":{"x_min":75,"x_max":622.71875,"ha":695,"o":"m 75 865 l 181 865 q 183 860 183 863 q 179 849 183 856 q 175 831 176 842 l 175 494 l 514 494 l 514 865 l 621 865 q 622 860 622 863 q 618 849 622 855 q 613 834 614 842 l 613 -1 l 513 -1 l 513 413 l 175 413 l 175 0 l 75 0 l 75 865 "},"î":{"x_min":138,"x_max":550,"ha":695,"o":"m 147 635 l 401 635 l 401 81 l 550 81 l 550 0 l 138 0 l 138 81 l 301 81 l 301 554 l 147 554 l 147 635 m 158 756 l 312 951 l 343 951 l 496 755 l 432 706 l 323 849 l 210 708 l 158 756 "},"−":{"x_min":63,"x_max":634,"ha":695,"o":"m 63 477 l 634 477 l 634 392 l 63 392 l 63 477 "},"¥":{"x_min":49.875,"x_max":646.6875,"ha":695,"o":"m 49 867 l 157 867 l 359 504 l 543 865 l 646 865 l 405 410 l 405 381 l 591 381 l 591 300 l 405 300 l 405 214 l 591 214 l 591 136 l 405 136 l 405 0 l 311 0 l 311 136 l 117 136 l 117 214 l 311 214 l 311 300 l 117 300 l 117 381 l 311 381 l 311 410 l 49 867 "},"␣":{"x_min":67,"x_max":628,"ha":695,"o":"m 67 97 l 131 97 l 131 -29 l 561 -29 l 561 97 l 628 97 l 628 -92 l 67 -92 l 67 97 "},"U":{"x_min":70,"x_max":631,"ha":695,"o":"m 70 865 l 179 865 q 181 862 181 865 q 175 846 181 856 q 166 820 168 835 l 166 296 q 179 184 166 224 q 218 119 193 145 q 277 81 243 93 q 350 66 311 68 q 423 79 389 68 q 483 118 457 91 q 523 185 508 145 q 538 300 538 225 l 538 865 l 631 865 l 631 302 q 612 159 631 218 q 554 62 593 101 q 464 4 515 23 q 349 -15 412 -15 q 235 4 286 -15 q 147 61 183 23 q 90 152 110 98 q 70 298 70 207 l 70 865 "},"Ñ":{"x_min":70,"x_max":630.71875,"ha":695,"o":"m 70 0 l 70 865 l 164 865 l 528 223 l 528 866 l 630 866 q 625 848 630 858 q 621 828 621 838 l 621 0 l 544 0 l 163 680 l 163 0 l 70 0 m 188 948 l 126 992 q 283 1114 202 1114 q 335 1098 308 1114 q 386 1062 362 1082 q 429 1025 410 1041 q 458 1010 448 1010 q 505 1031 490 1010 q 544 1083 521 1052 l 597 1027 q 524 953 555 977 q 462 929 494 929 q 405 945 430 929 q 358 981 380 961 q 319 1016 337 1000 q 284 1033 301 1033 q 235 1014 253 1033 q 188 948 217 995 "},"F":{"x_min":108,"x_max":607,"ha":695,"o":"m 108 867 l 607 867 l 607 782 l 205 782 l 205 510 l 529 510 l 529 425 l 205 425 l 205 0 l 108 0 l 108 867 "},"ă":{"x_min":68,"x_max":604,"ha":695,"o":"m 126 559 q 352 649 210 649 q 536 589 469 649 q 604 393 604 530 l 604 0 l 509 0 l 509 69 q 281 -15 408 -15 q 192 0 231 -15 q 124 40 152 15 q 82 97 97 65 q 68 161 68 129 q 150 312 68 257 q 388 374 233 368 l 508 374 l 508 397 q 468 530 508 492 q 345 568 428 568 q 174 496 242 568 l 126 559 m 512 297 l 488 297 q 451 298 469 297 q 417 299 434 299 q 292 288 341 299 q 216 260 244 278 q 178 218 188 241 q 168 169 168 196 q 206 93 168 125 q 302 61 245 61 q 377 74 344 61 q 435 106 410 87 q 476 145 460 125 q 498 180 491 165 q 512 255 512 208 l 512 297 m 203 897 q 270 827 229 855 q 359 800 311 800 q 525 897 448 800 l 564 838 q 473 758 526 788 q 361 728 419 728 q 153 834 243 728 l 203 897 "},"*":{"x_min":57,"x_max":636,"ha":695,"o":"m 295 721 l 408 721 q 404 702 406 712 q 399 683 401 691 l 379 474 l 599 575 l 636 490 l 398 417 l 573 208 l 496 148 l 347 379 l 191 147 l 117 208 l 297 416 l 57 490 l 93 580 l 318 475 l 295 721 "},"†":{"x_min":68,"x_max":625,"ha":695,"o":"m 301 906 l 394 906 l 394 635 l 625 635 l 625 552 l 394 552 l 394 -210 l 301 -210 l 301 552 l 68 552 l 68 635 l 301 635 l 301 906 "},"°":{"x_min":168,"x_max":543,"ha":695,"o":"m 487 832 q 543 700 543 778 q 528 628 543 662 q 488 569 513 594 q 428 529 462 544 q 355 514 394 514 q 282 528 316 514 q 222 568 248 543 q 182 627 197 593 q 168 700 168 661 q 183 773 168 739 q 224 833 198 808 q 283 873 249 858 q 355 888 318 888 q 487 832 433 888 m 429 780 q 356 814 399 814 q 315 804 335 814 q 281 779 295 795 q 259 743 267 763 q 251 701 251 723 q 281 623 251 656 q 354 590 311 590 q 429 623 399 590 q 460 701 460 656 q 429 780 460 745 "},"å":{"x_min":68,"x_max":604,"ha":695,"o":"m 126 559 q 352 649 210 649 q 536 589 469 649 q 604 393 604 530 l 604 0 l 509 0 l 509 69 q 281 -15 408 -15 q 192 0 231 -15 q 124 40 152 15 q 82 97 97 65 q 68 161 68 129 q 150 312 68 257 q 388 374 233 368 l 508 374 l 508 397 q 468 530 508 492 q 345 568 428 568 q 174 496 242 568 l 126 559 m 512 297 l 488 297 q 451 298 469 297 q 417 299 434 299 q 292 288 341 299 q 216 260 244 278 q 178 218 188 241 q 168 169 168 196 q 206 93 168 125 q 302 61 245 61 q 377 74 344 61 q 435 106 410 87 q 476 145 460 125 q 498 180 491 165 q 512 255 512 208 l 512 297 m 445 925 q 483 840 483 888 q 472 792 483 815 q 444 754 462 770 q 403 727 427 737 q 355 718 380 718 q 307 727 330 718 q 267 754 284 737 q 239 792 249 770 q 229 840 229 815 q 239 887 229 864 q 267 925 249 909 q 307 952 284 942 q 355 962 330 962 q 445 925 406 962 m 356 904 q 316 885 333 904 q 300 840 300 866 q 316 794 300 813 q 356 776 333 776 q 397 794 380 776 q 415 840 415 813 q 397 885 415 866 q 356 904 380 904 "},"0":{"x_min":69,"x_max":625,"ha":695,"o":"m 536 755 q 600 614 576 701 q 625 418 625 526 q 600 227 625 308 q 536 91 576 146 q 447 11 497 37 q 345 -15 397 -15 q 242 16 292 -15 q 153 106 192 48 q 91 245 114 164 q 69 425 69 326 q 91 605 69 523 q 153 746 114 687 q 242 838 192 805 q 345 871 292 871 q 536 755 454 871 m 484 673 q 420 757 457 729 q 347 786 384 786 q 278 761 312 786 q 217 691 243 736 q 175 583 191 647 q 159 443 159 519 q 178 279 159 357 l 484 673 m 516 580 l 210 191 q 280 101 243 129 q 353 74 317 74 q 424 96 391 74 q 481 162 457 119 q 520 267 505 205 q 535 407 535 329 q 530 498 535 455 q 516 580 526 541 "},"ō":{"x_min":56,"x_max":639,"ha":695,"o":"m 353 649 q 463 626 411 649 q 554 560 515 603 q 616 455 593 516 q 639 316 639 393 q 616 177 639 238 q 555 72 594 116 q 464 5 516 28 q 351 -17 411 -17 q 237 8 290 -17 q 143 76 183 33 q 79 181 103 120 q 56 313 56 243 q 80 447 56 384 q 145 553 104 509 q 240 623 186 597 q 353 649 294 649 m 539 313 q 523 420 539 373 q 480 498 507 466 q 420 547 454 530 q 349 564 386 564 q 277 547 311 564 q 218 498 243 530 q 177 421 192 466 q 162 319 162 376 q 177 217 162 263 q 218 138 192 171 q 278 87 243 105 q 351 69 313 69 q 424 84 390 69 q 484 132 458 100 q 524 209 509 163 q 539 313 539 255 m 171 863 l 524 863 l 524 785 l 171 785 l 171 863 "},"”":{"x_min":84,"x_max":568,"ha":695,"o":"m 280 770 q 132 510 280 658 l 84 551 q 149 629 124 587 q 174 697 174 670 q 162 723 174 711 q 137 747 150 736 q 114 772 125 759 q 103 804 103 786 q 125 862 103 838 q 185 886 148 886 q 251 854 222 886 q 280 770 280 822 m 568 770 q 420 510 568 658 l 372 551 q 437 629 412 587 q 462 697 462 670 q 451 723 462 711 q 427 747 441 736 q 402 772 413 759 q 391 804 391 786 q 413 862 391 838 q 473 886 436 886 q 539 854 510 886 q 568 770 568 822 "},"ö":{"x_min":56,"x_max":639,"ha":695,"o":"m 353 649 q 463 626 411 649 q 554 560 515 603 q 616 455 593 516 q 639 316 639 393 q 616 177 639 238 q 555 72 594 116 q 464 5 516 28 q 351 -17 411 -17 q 237 8 290 -17 q 143 76 183 33 q 79 181 103 120 q 56 313 56 243 q 80 447 56 384 q 145 553 104 509 q 240 623 186 597 q 353 649 294 649 m 539 313 q 523 420 539 373 q 480 498 507 466 q 420 547 454 530 q 349 564 386 564 q 277 547 311 564 q 218 498 243 530 q 177 421 192 466 q 162 319 162 376 q 177 217 162 263 q 218 138 192 171 q 278 87 243 105 q 351 69 313 69 q 424 84 390 69 q 484 132 458 100 q 524 209 509 163 q 539 313 539 255 m 275 902 q 296 852 296 881 q 275 803 296 824 q 226 783 254 783 q 176 803 197 783 q 156 852 156 824 q 176 901 156 880 q 226 923 197 923 q 275 902 254 923 m 523 902 q 544 852 544 881 q 523 803 544 824 q 474 783 502 783 q 425 803 445 783 q 405 852 405 823 q 425 902 405 881 q 474 923 445 923 q 523 902 502 923 "},"Õ":{"x_min":40,"x_max":654,"ha":695,"o":"m 352 -14 q 224 18 281 -14 q 125 110 166 51 q 62 252 84 169 q 40 434 40 334 q 62 616 40 534 q 127 755 85 698 q 227 843 169 812 q 355 875 285 875 q 469 848 416 875 q 565 768 522 822 q 631 631 609 715 q 654 433 654 548 q 627 222 654 308 q 558 84 601 137 q 461 8 515 31 q 352 -14 408 -14 m 208 159 q 352 82 273 82 q 426 97 390 82 q 492 154 462 113 q 539 262 522 194 q 557 435 557 330 q 537 604 557 538 q 488 709 518 670 q 425 765 458 748 q 355 783 393 783 q 276 767 312 784 q 208 713 240 751 q 156 610 176 676 q 136 442 136 545 q 156 273 136 347 q 208 159 176 199 m 188 948 l 126 992 q 283 1114 202 1114 q 335 1098 308 1114 q 386 1062 362 1082 q 429 1025 410 1041 q 458 1010 448 1010 q 505 1031 490 1010 q 544 1083 521 1052 l 597 1027 q 524 953 555 977 q 462 929 494 929 q 405 945 430 929 q 358 981 380 961 q 319 1016 337 1000 q 284 1033 301 1033 q 235 1014 253 1033 q 188 948 217 995 "},"ć":{"x_min":78,"x_max":635,"ha":695,"o":"m 635 528 l 564 447 q 557 456 557 451 q 556 469 558 460 q 546 489 554 477 q 512 523 537 502 q 383 562 465 562 q 306 545 343 562 q 242 497 269 528 q 197 423 214 466 q 181 325 181 379 q 197 226 181 271 q 243 147 214 180 q 312 95 272 114 q 401 77 353 77 q 566 153 497 77 l 625 84 q 393 -15 530 -15 q 267 9 325 -15 q 167 79 209 34 q 101 184 125 123 q 78 316 78 244 q 101 448 78 387 q 167 553 125 509 q 268 622 209 597 q 397 647 328 647 q 534 615 472 647 q 635 528 596 584 m 405 971 l 493 912 l 352 725 l 283 766 l 405 971 "},"þ":{"x_min":83,"x_max":643,"ha":695,"o":"m 83 924 l 194 924 q 189 901 194 914 q 184 878 184 889 l 184 537 q 270 619 216 589 q 377 649 323 649 q 478 628 430 649 q 563 568 526 608 q 621 466 599 528 q 643 322 643 405 q 620 174 643 238 q 559 68 597 110 q 474 4 522 26 q 376 -17 426 -17 q 267 9 317 -17 q 186 83 217 35 l 186 -232 l 83 -232 l 83 924 m 184 263 q 231 116 187 160 q 341 72 276 72 q 411 83 376 72 q 474 121 445 94 q 520 192 502 148 q 539 304 539 237 q 488 495 539 426 q 345 564 437 564 q 288 554 318 564 q 236 520 259 544 q 199 457 213 497 q 184 359 184 418 l 184 263 "},"]":{"x_min":116,"x_max":513,"ha":695,"o":"m 513 931 l 513 -124 l 116 -124 l 116 -43 l 425 -43 l 425 848 l 117 848 l 117 931 l 513 931 "},"8":{"x_min":83,"x_max":612,"ha":695,"o":"m 583 670 q 545 551 583 608 q 445 462 508 495 q 566 363 520 427 q 612 223 612 298 q 591 129 612 173 q 534 54 570 86 q 450 4 499 22 q 346 -14 402 -14 q 242 4 291 -14 q 158 53 194 22 q 103 126 123 84 q 83 217 83 169 q 130 358 83 293 q 256 459 177 423 q 161 545 197 490 q 125 662 125 599 q 143 745 125 706 q 193 813 161 784 q 266 859 224 842 q 356 876 308 876 q 446 860 405 876 q 518 815 488 844 q 565 749 548 787 q 583 670 583 712 m 328 421 q 224 342 265 394 q 183 228 183 290 q 196 168 183 196 q 232 119 209 140 q 284 86 254 98 q 348 74 314 74 q 413 85 383 74 q 465 117 442 97 q 499 164 487 137 q 512 223 512 191 q 462 341 512 287 q 328 421 412 394 m 241 595 q 285 547 258 568 q 347 509 312 527 l 370 497 q 455 572 422 524 q 489 668 489 619 q 478 715 489 693 q 449 756 468 737 q 405 784 430 774 q 351 795 380 795 q 297 784 322 795 q 255 757 273 774 q 227 718 237 740 q 218 672 218 696 q 241 595 218 630 "},"R":{"x_min":78,"x_max":644.640625,"ha":695,"o":"m 78 865 l 333 865 q 553 796 486 865 q 621 617 621 728 q 608 543 621 580 q 573 474 596 506 q 517 419 550 443 q 444 386 484 395 l 644 0 l 536 0 l 344 382 l 178 382 l 178 0 l 78 0 l 78 865 m 178 773 l 178 468 l 345 468 q 479 508 438 468 q 521 617 521 549 q 509 678 521 651 q 478 727 498 706 q 425 760 458 748 q 345 773 392 773 l 178 773 "},"ť":{"x_min":62,"x_max":671,"ha":695,"o":"m 226 804 l 334 822 q 331 800 334 810 q 326 785 327 790 l 309 635 l 518 635 l 518 554 l 309 554 q 297 320 297 429 q 299 207 297 253 q 314 134 302 161 q 348 93 326 108 q 408 79 371 79 q 551 137 473 79 l 582 57 q 384 -13 486 -13 q 238 47 284 -13 q 197 244 192 108 q 199 372 197 294 q 210 554 202 450 l 62 554 l 62 635 l 215 635 l 226 804 m 671 889 q 552 680 671 799 l 514 713 q 565 776 545 742 q 586 831 586 810 q 576 850 586 840 q 557 869 567 860 q 538 889 547 878 q 529 915 529 900 q 547 962 529 943 q 595 981 566 981 q 648 955 625 981 q 671 889 671 929 "},"Ľ":{"x_min":92,"x_max":610,"ha":695,"o":"m 92 865 l 204 865 q 198 842 204 855 q 192 817 192 830 l 192 85 l 610 85 l 610 0 l 92 0 l 92 865 m 589 780 q 470 571 589 688 l 432 604 q 483 667 463 633 q 504 720 504 701 q 494 741 504 731 q 475 761 485 751 q 456 781 465 770 q 447 806 447 792 q 465 853 447 834 q 513 872 484 872 q 566 846 543 872 q 589 780 589 820 "},"Ż":{"x_min":70,"x_max":643,"ha":695,"o":"m 87 865 l 621 865 l 621 796 l 192 86 l 600 86 q 621 90 609 86 q 643 94 633 94 l 643 0 l 70 0 l 70 67 l 505 777 l 87 777 l 87 865 m 299 1068 q 349 1089 320 1089 q 400 1068 378 1089 q 422 1018 422 1047 q 400 967 422 988 q 349 947 378 947 q 300 967 322 947 q 279 1018 279 988 q 299 1068 279 1047 "},"o":{"x_min":56,"x_max":639,"ha":695,"o":"m 353 649 q 463 626 411 649 q 554 560 515 603 q 616 455 593 516 q 639 316 639 393 q 616 177 639 238 q 555 72 594 116 q 464 5 516 28 q 351 -17 411 -17 q 237 8 290 -17 q 143 76 183 33 q 79 181 103 120 q 56 313 56 243 q 80 447 56 384 q 145 553 104 509 q 240 623 186 597 q 353 649 294 649 m 539 313 q 523 420 539 373 q 480 498 507 466 q 420 547 454 530 q 349 564 386 564 q 277 547 311 564 q 218 498 243 530 q 177 421 192 466 q 162 319 162 376 q 177 217 162 263 q 218 138 192 171 q 278 87 243 105 q 351 69 313 69 q 424 84 390 69 q 484 132 458 100 q 524 209 509 163 q 539 313 539 255 "},"5":{"x_min":89,"x_max":618,"ha":695,"o":"m 147 865 l 586 865 l 586 777 l 229 777 l 215 528 q 357 562 283 562 q 460 541 412 562 q 543 483 508 521 q 598 392 579 445 q 618 272 618 338 q 597 152 618 205 q 539 61 576 98 q 453 4 502 23 q 345 -15 404 -15 q 199 19 266 -15 q 89 118 132 54 l 175 182 q 182 165 182 177 q 184 150 183 152 q 204 126 190 140 q 239 100 217 112 q 289 78 260 87 q 350 70 317 70 q 414 84 383 70 q 467 125 444 99 q 504 189 490 151 q 518 276 518 227 q 504 362 518 324 q 466 427 490 400 q 410 467 441 453 q 340 481 378 481 q 253 459 296 481 q 179 399 210 437 l 118 424 l 147 865 "},"õ":{"x_min":56,"x_max":639,"ha":695,"o":"m 353 649 q 463 626 411 649 q 554 560 515 603 q 616 455 593 516 q 639 316 639 393 q 616 177 639 238 q 555 72 594 116 q 464 5 516 28 q 351 -17 411 -17 q 237 8 290 -17 q 143 76 183 33 q 79 181 103 120 q 56 313 56 243 q 80 447 56 384 q 145 553 104 509 q 240 623 186 597 q 353 649 294 649 m 539 313 q 523 420 539 373 q 480 498 507 466 q 420 547 454 530 q 349 564 386 564 q 277 547 311 564 q 218 498 243 530 q 177 421 192 466 q 162 319 162 376 q 177 217 162 263 q 218 138 192 171 q 278 87 243 105 q 351 69 313 69 q 424 84 390 69 q 484 132 458 100 q 524 209 509 163 q 539 313 539 255 m 187 773 l 126 817 q 282 939 200 939 q 336 923 307 939 q 386 887 364 907 q 427 850 409 866 q 456 835 446 835 q 484 840 472 835 q 505 856 496 846 q 522 879 514 866 q 543 908 531 892 l 595 852 q 523 778 553 802 q 461 754 493 754 q 404 770 429 754 q 359 806 378 786 q 320 841 339 825 q 284 858 300 858 q 235 839 253 858 q 187 773 217 820 "},",":{"x_min":229,"x_max":425,"ha":695,"o":"m 425 27 q 276 -233 425 -81 l 229 -191 q 293 -113 267 -155 q 319 -45 319 -72 q 307 -20 319 -31 q 283 2 296 -8 q 259 28 270 13 q 248 61 248 43 q 270 119 248 95 q 330 143 293 143 q 395 111 366 143 q 425 27 425 79 "},"d":{"x_min":63,"x_max":622.5,"ha":695,"o":"m 514 541 l 514 924 l 622 924 q 615 905 622 915 q 608 885 608 894 l 610 58 q 616 0 610 25 l 515 0 q 510 47 510 16 l 510 101 q 426 17 479 48 q 320 -14 374 -14 q 221 6 267 -14 q 139 69 175 27 q 83 174 104 110 q 63 323 63 237 q 86 472 63 410 q 148 573 110 534 q 233 632 186 613 q 328 651 280 651 q 442 621 395 651 q 514 541 490 591 m 219 522 q 160 339 160 468 q 205 146 160 219 q 339 74 251 74 q 384 81 360 74 q 428 104 407 89 q 465 140 449 119 q 490 187 482 161 q 505 321 505 237 q 501 409 505 374 q 488 469 497 444 q 465 510 479 494 q 431 539 451 526 q 384 562 406 554 q 343 570 363 570 q 275 558 303 570 q 219 522 247 547 "},"\"":{"x_min":154,"x_max":551,"ha":695,"o":"m 437 761 l 429 848 q 447 906 429 887 q 488 925 465 925 q 531 904 512 925 q 551 837 551 883 q 503 663 551 794 l 470 572 l 394 590 l 424 684 q 437 761 437 726 m 198 761 l 189 848 q 207 906 189 887 q 248 925 225 925 q 291 904 272 925 q 311 837 311 883 q 265 663 311 790 l 231 572 l 154 590 l 184 684 q 195 724 191 705 q 198 761 198 742 "},"˙":{"x_min":282,"x_max":425,"ha":695,"o":"m 302 890 q 352 911 323 911 q 403 889 381 911 q 425 838 425 867 q 403 788 425 809 q 352 768 381 768 q 302 788 323 768 q 282 838 282 809 q 302 890 282 869 "},"ê":{"x_min":68,"x_max":618,"ha":695,"o":"m 359 650 q 456 631 409 650 q 539 577 504 613 q 596 483 574 540 q 618 348 618 426 q 617 325 618 337 q 615 303 616 314 l 164 303 q 186 191 166 236 q 237 118 207 146 q 305 78 268 90 q 380 67 343 67 q 544 137 479 67 l 600 82 q 377 -14 519 -14 q 250 7 308 -14 q 152 70 193 29 q 90 174 112 112 q 68 315 68 236 q 90 458 68 395 q 153 563 113 520 q 245 627 193 605 q 359 650 298 650 m 168 381 l 516 381 q 517 391 516 386 q 518 403 518 396 q 504 469 518 437 q 469 523 491 500 q 417 560 447 546 q 352 574 387 574 q 234 527 287 574 q 168 381 182 480 m 186 756 l 340 951 l 371 951 l 524 755 l 460 706 l 351 849 l 238 708 l 186 756 "},"„":{"x_min":84,"x_max":568,"ha":695,"o":"m 568 27 q 420 -233 568 -84 l 372 -191 q 437 -113 412 -155 q 462 -45 462 -72 q 450 -20 462 -31 q 426 2 439 -8 q 402 28 413 13 q 391 61 391 43 q 413 119 391 95 q 473 143 436 143 q 539 111 510 143 q 568 27 568 79 m 280 27 q 132 -233 280 -84 l 84 -191 q 149 -113 124 -155 q 174 -45 174 -72 q 162 -20 174 -31 q 138 4 151 -8 q 114 29 125 16 q 103 61 103 43 q 125 119 103 95 q 185 143 148 143 q 251 111 222 143 q 280 27 280 79 "},"ľ":{"x_min":85,"x_max":657,"ha":695,"o":"m 93 924 l 373 924 l 373 81 l 559 81 l 559 0 l 85 0 l 85 81 l 273 81 l 273 843 l 93 843 l 93 924 m 657 840 q 538 631 657 750 l 500 664 q 551 727 531 693 q 572 782 572 761 q 562 801 572 791 q 543 820 553 811 q 524 840 533 829 q 515 866 515 851 q 533 913 515 894 q 581 932 552 932 q 634 906 611 932 q 657 840 657 880 "},"Â":{"x_min":20.75,"x_max":670.8125,"ha":695,"o":"m 20 0 l 326 881 l 337 881 l 670 0 l 570 0 l 474 253 l 200 253 l 116 0 l 20 0 m 452 328 l 330 658 l 219 328 l 452 328 m 143 961 l 324 1099 l 355 1099 l 526 962 l 480 909 l 337 1008 l 181 914 l 143 961 "},"Ţ":{"x_min":43,"x_max":645,"ha":695,"o":"m 403 -151 q 336 -118 403 -118 l 294 -118 l 310 -1 l 289 -1 l 289 779 l 43 779 l 43 867 l 645 867 l 645 779 l 389 779 l 389 -1 l 371 -1 l 362 -65 l 386 -66 q 482 -142 482 -73 q 442 -213 482 -181 q 321 -246 402 -246 q 167 -194 239 -246 l 201 -136 q 339 -186 261 -186 q 389 -175 375 -186 q 403 -151 403 -165 "},"Í":{"x_min":112,"x_max":559,"ha":695,"o":"m 122 865 l 551 865 l 551 784 l 380 784 l 380 78 l 559 78 l 559 -1 l 112 -1 l 112 80 l 283 80 l 283 784 l 122 784 l 122 865 m 451 1099 l 507 1001 l 271 917 l 240 975 l 451 1099 "},"´":{"x_min":283,"x_max":493,"ha":695,"o":"m 405 971 l 493 912 l 352 725 l 283 766 l 405 971 "},"Ú":{"x_min":70,"x_max":631,"ha":695,"o":"m 70 865 l 179 865 q 181 862 181 865 q 175 846 181 856 q 166 820 168 835 l 166 296 q 179 184 166 224 q 218 119 193 145 q 277 81 243 93 q 350 66 311 68 q 423 79 389 68 q 483 118 457 91 q 523 185 508 145 q 538 300 538 225 l 538 865 l 631 865 l 631 302 q 612 159 631 218 q 554 62 593 101 q 464 4 515 23 q 349 -15 412 -15 q 235 4 286 -15 q 147 61 183 23 q 90 152 110 98 q 70 298 70 207 l 70 865 m 451 1099 l 507 1001 l 271 917 l 240 975 l 451 1099 "},"Ý":{"x_min":38.3125,"x_max":656.859375,"ha":695,"o":"m 38 865 l 149 865 l 362 445 l 553 865 l 656 865 l 411 341 l 411 0 l 305 0 l 305 341 l 38 865 m 451 1099 l 507 1001 l 271 917 l 240 975 l 451 1099 "},"ą":{"x_min":68,"x_max":606,"ha":695,"o":"m 512 297 l 488 297 q 451 298 469 297 q 417 299 434 299 q 292 288 341 299 q 216 260 244 278 q 178 218 188 241 q 168 169 168 196 q 206 93 168 125 q 302 61 245 61 q 377 74 344 61 q 435 106 410 87 q 476 145 460 125 q 498 180 492 166 q 512 255 512 215 l 512 297 m 126 559 q 352 649 210 649 q 536 589 469 649 q 604 393 604 530 l 602 0 q 486 -141 486 -103 q 497 -168 486 -157 q 525 -180 508 -180 q 606 -148 565 -180 l 606 -212 q 512 -244 567 -244 q 428 -219 457 -244 q 400 -159 400 -195 q 510 0 400 -90 l 509 69 q 281 -15 406 -15 q 192 0 231 -15 q 124 40 152 15 q 81 97 95 65 q 68 161 68 129 q 150 312 68 255 q 388 374 233 368 l 508 374 l 508 397 q 468 530 508 492 q 345 568 428 568 q 174 496 242 568 l 126 559 "},"Ö":{"x_min":40,"x_max":654,"ha":695,"o":"m 352 -14 q 224 18 281 -14 q 125 110 166 51 q 62 252 84 169 q 40 434 40 334 q 62 616 40 534 q 127 755 85 698 q 227 843 169 812 q 355 875 285 875 q 469 848 416 875 q 565 768 522 822 q 631 631 609 715 q 654 433 654 548 q 627 222 654 308 q 558 84 601 137 q 461 8 515 31 q 352 -14 408 -14 m 208 159 q 352 82 273 82 q 426 97 390 82 q 492 154 462 113 q 539 262 522 194 q 557 435 557 330 q 537 604 557 538 q 488 709 518 670 q 425 765 458 748 q 355 783 393 783 q 276 767 312 784 q 208 713 240 751 q 156 610 176 676 q 136 442 136 545 q 156 273 136 347 q 208 159 176 199 m 267 1075 q 288 1025 288 1054 q 267 976 288 997 q 217 956 246 956 q 168 976 189 956 q 148 1025 148 997 q 168 1074 148 1053 q 217 1096 189 1096 q 267 1075 246 1096 m 515 1075 q 536 1025 536 1054 q 515 976 536 997 q 465 956 494 956 q 417 976 437 956 q 397 1025 397 996 q 417 1075 397 1054 q 465 1096 437 1096 q 515 1075 494 1096 "},"z":{"x_min":70,"x_max":625,"ha":695,"o":"m 99 635 l 592 635 l 592 566 l 206 86 l 582 86 q 603 90 591 86 q 625 94 615 94 l 625 0 l 70 0 l 70 67 l 462 547 l 99 547 l 99 635 "},"™":{"x_min":25,"x_max":671,"ha":695,"o":"m 333 882 l 333 826 l 208 826 l 208 444 l 144 444 l 144 826 l 25 826 l 25 882 l 333 882 m 420 882 l 520 680 l 625 882 l 671 882 l 671 444 l 613 444 l 613 743 l 529 592 l 506 594 l 430 743 l 430 444 l 372 444 l 372 882 l 420 882 "},"Ř":{"x_min":78,"x_max":644.640625,"ha":695,"o":"m 78 865 l 333 865 q 553 796 486 865 q 621 617 621 728 q 608 543 621 580 q 573 474 596 506 q 517 419 550 443 q 444 386 484 395 l 644 0 l 536 0 l 344 382 l 178 382 l 178 0 l 78 0 l 78 865 m 178 773 l 178 468 l 345 468 q 479 508 438 468 q 521 617 521 549 q 509 678 521 651 q 478 727 498 706 q 425 760 458 748 q 345 773 392 773 l 178 773 m 551 1048 l 369 910 l 338 910 l 168 1046 l 213 1099 l 356 1000 l 512 1094 l 551 1048 "},"ã":{"x_min":68,"x_max":608,"ha":695,"o":"m 126 559 q 352 649 210 649 q 536 589 469 649 q 604 393 604 530 l 604 0 l 509 0 l 509 69 q 281 -15 408 -15 q 192 0 231 -15 q 124 40 152 15 q 82 97 97 65 q 68 161 68 129 q 150 312 68 257 q 388 374 233 368 l 508 374 l 508 397 q 468 530 508 492 q 345 568 428 568 q 174 496 242 568 l 126 559 m 512 297 l 488 297 q 451 298 469 297 q 417 299 434 299 q 292 288 341 299 q 216 260 244 278 q 178 218 188 241 q 168 169 168 196 q 206 93 168 125 q 302 61 245 61 q 377 74 344 61 q 435 106 410 87 q 476 145 460 125 q 498 180 491 165 q 512 255 512 208 l 512 297 m 200 773 l 139 817 q 295 939 213 939 q 349 923 320 939 q 399 887 377 907 q 440 850 422 866 q 469 835 459 835 q 497 840 485 835 q 518 856 509 846 q 535 879 527 866 q 556 908 544 892 l 608 852 q 536 778 566 802 q 474 754 506 754 q 417 770 442 754 q 372 806 391 786 q 333 841 352 825 q 297 858 313 858 q 248 839 266 858 q 200 773 230 820 "},"Ň":{"x_min":70,"x_max":630.71875,"ha":695,"o":"m 70 0 l 70 865 l 164 865 l 528 223 l 528 866 l 630 866 q 625 848 630 858 q 621 828 621 838 l 621 0 l 544 0 l 163 680 l 163 0 l 70 0 m 551 1048 l 369 910 l 338 910 l 168 1046 l 213 1099 l 356 1000 l 512 1094 l 551 1048 "},"æ":{"x_min":14,"x_max":687,"ha":695,"o":"m 43 572 q 204 649 102 649 q 295 626 254 649 q 358 562 336 603 q 421 626 382 603 q 503 649 461 649 q 639 575 597 649 q 681 372 681 501 l 681 319 l 392 310 l 392 243 q 430 114 392 163 q 536 66 469 66 q 638 117 600 66 l 687 58 q 528 -15 625 -15 q 428 10 475 -15 q 354 80 382 36 q 289 10 330 36 q 197 -15 247 -15 q 123 1 157 -15 q 64 44 89 18 q 27 104 40 71 q 14 171 14 137 q 84 324 14 267 q 275 386 155 382 l 307 388 l 307 424 q 276 531 307 491 q 197 571 245 571 q 91 511 134 571 l 43 572 m 307 304 l 276 303 q 191 289 225 300 q 138 262 158 279 q 110 221 118 244 q 103 169 103 197 q 111 133 103 150 q 133 101 119 115 q 164 78 147 86 q 200 70 182 70 q 284 106 259 70 q 308 219 308 143 q 307 235 308 228 q 307 251 307 243 l 307 304 m 392 388 l 600 394 l 600 424 q 574 531 600 491 q 502 571 548 571 q 422 525 453 571 q 392 411 392 479 l 392 388 "},"É":{"x_min":82,"x_max":612,"ha":695,"o":"m 82 867 l 612 867 l 612 781 l 174 781 l 174 496 l 536 496 l 536 407 l 174 407 l 174 86 l 608 86 l 608 0 l 82 0 l 82 867 m 451 1099 l 507 1001 l 271 917 l 240 975 l 451 1099 "},"~":{"x_min":57,"x_max":661,"ha":695,"o":"m 126 475 l 57 520 q 141 609 90 574 q 238 644 191 644 q 321 628 287 644 q 376 592 355 612 q 470 540 433 540 q 536 562 509 540 q 597 630 562 584 l 661 577 q 622 528 644 552 q 576 488 599 505 q 527 460 552 470 q 477 450 502 450 q 397 467 430 450 q 344 505 363 484 q 241 561 293 561 q 126 475 179 561 "},"³":{"x_min":156,"x_max":564,"ha":695,"o":"m 358 886 q 429 874 395 886 q 487 841 462 862 q 526 793 512 820 q 540 735 540 766 q 517 667 540 697 q 460 626 495 638 q 534 585 505 619 q 564 507 564 551 q 546 445 564 474 q 500 395 529 417 q 434 360 472 372 q 354 348 396 348 q 156 438 235 348 l 221 511 q 230 490 226 504 q 240 471 233 477 q 346 426 286 426 q 441 452 405 426 q 478 515 478 478 q 445 571 478 551 q 355 592 412 592 q 334 591 344 592 q 314 589 325 590 l 314 660 q 327 659 320 659 q 341 659 334 659 q 430 680 404 659 q 457 732 457 701 q 427 788 457 763 q 354 814 398 814 q 223 748 275 814 l 174 799 q 358 886 247 886 "},"¡":{"x_min":250,"x_max":415,"ha":695,"o":"m 273 787 q 250 844 250 809 q 274 902 250 877 q 331 928 299 928 q 389 902 363 928 q 415 844 415 877 q 390 788 415 812 q 331 764 365 764 q 273 787 297 764 m 330 -15 q 279 12 298 -15 q 259 100 259 40 q 261 137 259 115 q 265 186 262 158 l 272 258 l 297 643 l 366 643 l 387 258 q 390 214 388 237 q 394 166 392 190 q 399 120 396 141 q 401 84 401 98 q 381 10 401 36 q 330 -15 362 -15 "},"[":{"x_min":182,"x_max":581,"ha":695,"o":"m 182 931 l 579 931 l 579 848 l 271 848 l 271 -43 l 581 -43 l 581 -124 l 182 -124 l 182 931 "},"%":{"x_min":39,"x_max":670,"ha":695,"o":"m 543 865 l 637 865 l 152 0 l 64 0 l 543 865 m 39 700 q 51 771 39 737 q 84 828 63 804 q 134 867 105 853 q 194 881 162 881 q 254 867 226 881 q 304 828 283 853 q 337 769 325 803 q 350 698 350 736 q 305 568 350 619 q 194 518 261 518 q 134 531 162 518 q 84 570 105 545 q 51 627 63 594 q 39 700 39 661 m 262 699 q 239 784 262 759 q 190 809 217 809 q 143 784 165 809 q 122 699 122 759 q 144 615 122 640 q 193 590 166 590 q 241 614 220 590 q 262 699 262 639 m 515 346 q 576 332 547 346 q 625 293 604 318 q 658 235 646 268 q 670 165 670 202 q 657 94 670 127 q 624 37 644 61 q 575 0 603 13 q 515 -14 547 -14 q 455 0 483 -14 q 405 37 426 13 q 372 94 385 61 q 360 165 360 127 q 372 236 360 202 q 405 293 385 269 q 455 332 426 318 q 515 346 483 346 m 563 247 q 514 274 540 274 q 464 249 486 274 q 443 165 443 224 q 466 80 443 106 q 517 55 489 55 q 565 81 544 55 q 587 163 587 107 q 563 247 587 219 "},"P":{"x_min":82,"x_max":633,"ha":695,"o":"m 82 865 l 359 865 q 482 846 431 865 q 565 793 533 827 q 614 715 598 759 q 633 620 630 670 q 614 527 630 570 q 567 451 598 483 q 486 400 535 419 q 366 382 437 382 l 182 382 l 182 0 l 82 0 l 82 865 m 182 773 l 182 468 l 355 468 q 489 508 449 468 q 533 617 528 549 q 519 678 530 649 q 488 727 509 706 q 435 760 467 748 q 356 773 402 773 l 182 773 "},"_":{"x_min":49,"x_max":648,"ha":695,"o":"m 49 -26 l 648 -26 l 648 -111 l 49 -111 l 49 -26 "},"Ŕ":{"x_min":78,"x_max":644.640625,"ha":695,"o":"m 78 865 l 333 865 q 553 796 486 865 q 621 617 621 728 q 608 543 621 580 q 573 474 596 506 q 517 419 550 443 q 444 386 484 395 l 644 0 l 536 0 l 344 382 l 178 382 l 178 0 l 78 0 l 78 865 m 178 773 l 178 468 l 345 468 q 479 508 438 468 q 521 617 521 549 q 509 678 521 651 q 478 727 498 706 q 425 760 458 748 q 345 773 392 773 l 178 773 m 427 1099 l 483 1001 l 247 917 l 216 975 l 427 1099 "},"ñ":{"x_min":94,"x_max":600,"ha":695,"o":"m 94 0 l 94 635 l 197 635 l 197 522 q 289 615 233 580 q 404 650 345 650 q 481 635 445 650 q 544 588 518 620 q 585 506 570 556 q 600 384 600 456 l 600 0 l 500 0 l 500 381 q 466 521 500 481 q 383 562 432 562 q 318 548 351 562 q 258 508 285 534 q 214 446 231 482 q 197 364 197 410 l 197 0 l 94 0 m 181 773 l 120 817 q 276 939 194 939 q 330 923 301 939 q 380 887 358 907 q 421 850 403 866 q 450 835 440 835 q 478 840 466 835 q 499 856 490 846 q 516 879 508 866 q 537 908 525 892 l 589 852 q 517 778 547 802 q 455 754 487 754 q 398 770 423 754 q 353 806 372 786 q 314 841 333 825 q 278 858 294 858 q 229 839 247 858 q 181 773 211 820 "},"‚":{"x_min":229,"x_max":425,"ha":695,"o":"m 425 27 q 276 -233 425 -81 l 229 -191 q 293 -113 267 -155 q 319 -45 319 -72 q 307 -20 319 -31 q 283 2 296 -8 q 259 28 270 13 q 248 61 248 43 q 270 119 248 95 q 330 143 293 143 q 395 111 366 143 q 425 27 425 79 "},"ˋ":{"x_min":250,"x_max":460,"ha":695,"o":"m 337 971 l 460 766 l 390 725 l 250 912 l 337 971 "},"Æ":{"x_min":6,"x_max":673,"ha":695,"o":"m 278 867 l 673 867 l 673 781 l 436 781 l 436 496 l 637 496 l 637 407 l 436 407 l 436 86 l 670 86 l 670 0 l 351 0 l 351 234 l 170 234 l 95 0 l 6 0 l 278 867 m 351 781 l 335 781 l 189 315 l 351 315 l 351 781 "},"ğ":{"x_min":52,"x_max":659,"ha":695,"o":"m 215 533 q 184 488 194 512 q 175 435 175 463 q 186 382 175 408 q 215 338 197 357 q 260 309 234 320 q 313 298 286 298 q 367 309 342 298 q 412 339 392 320 q 442 383 431 358 q 454 435 454 408 q 442 488 454 463 q 412 533 431 514 q 367 563 392 552 q 313 575 341 575 q 215 533 256 575 m 470 594 q 628 651 536 651 l 646 651 l 659 567 q 640 569 649 568 q 621 570 631 570 q 512 542 560 570 q 544 435 544 493 q 525 351 544 390 q 476 281 507 311 q 403 234 445 251 q 314 217 362 217 q 234 232 276 217 q 190 159 190 189 q 217 123 190 136 q 291 109 244 109 q 344 111 317 109 q 395 114 371 114 q 502 102 457 114 q 575 68 547 90 q 617 18 603 47 q 631 -44 631 -11 q 612 -117 631 -81 q 558 -179 594 -152 q 467 -223 522 -207 q 339 -239 413 -239 q 208 -227 263 -239 q 120 -194 153 -215 q 69 -146 86 -173 q 52 -89 52 -119 q 156 51 52 -14 q 105 138 105 77 q 177 258 105 198 q 107 333 132 287 q 83 430 83 379 q 102 519 83 478 q 154 590 121 560 q 229 638 187 621 q 316 656 271 656 q 470 594 409 656 m 222 32 q 144 -64 144 -11 q 159 -110 144 -91 q 202 -141 175 -129 q 266 -158 229 -152 q 343 -164 303 -164 q 483 -133 428 -164 q 539 -51 539 -102 q 507 6 536 -14 q 418 27 479 27 q 404 26 411 27 q 390 26 397 26 q 296 28 337 26 q 222 32 254 30 m 203 897 q 270 827 229 855 q 359 800 311 800 q 525 897 448 800 l 564 838 q 473 758 526 788 q 361 728 419 728 q 153 834 243 728 l 203 897 "},"ª":{"x_min":106,"x_max":591,"ha":695,"o":"m 453 677 q 350 792 453 792 q 218 729 263 792 l 171 786 q 357 864 240 864 q 493 818 445 861 q 541 687 541 775 l 541 673 l 541 371 l 455 371 l 455 416 q 312 357 390 357 q 188 400 235 357 q 142 502 142 443 q 186 602 142 561 q 305 655 230 644 q 381 660 350 659 q 434 661 411 661 l 453 661 l 453 677 m 458 589 l 435 589 q 337 586 376 589 q 274 573 298 583 q 240 546 250 562 q 231 504 231 530 q 254 454 231 477 q 322 432 277 432 q 364 438 340 432 q 408 461 387 445 q 443 501 429 476 q 458 563 458 526 l 458 589 m 106 286 l 591 286 l 591 211 l 106 211 l 106 286 "},"Œ":{"x_min":13,"x_max":673,"ha":695,"o":"m 352 826 l 352 867 l 673 867 l 673 781 l 439 781 l 439 496 l 637 496 l 637 407 l 439 407 l 439 86 l 670 86 l 670 0 l 351 0 l 351 42 q 299 2 327 15 q 239 -10 271 -10 q 74 97 135 -10 q 13 433 13 205 q 72 766 13 654 q 241 878 132 878 q 298 866 270 878 q 352 826 327 854 m 238 797 q 186 779 210 797 q 143 720 163 762 q 112 609 122 678 q 102 434 102 540 q 140 169 102 263 q 249 75 178 75 q 313 104 285 75 q 351 179 341 133 l 351 673 q 332 719 342 697 q 307 758 321 741 q 276 786 293 776 q 238 797 259 797 "},"Ą":{"x_min":20.75,"x_max":677,"ha":695,"o":"m 453 328 l 330 658 l 219 328 l 453 328 m 20 -1 l 326 881 l 337 881 l 672 0 q 557 -141 557 -103 q 568 -168 557 -157 q 596 -180 579 -180 q 677 -148 636 -180 l 677 -212 q 583 -244 638 -244 q 499 -219 528 -244 q 471 -159 471 -195 q 581 0 471 -89 l 572 0 l 475 253 l 200 253 l 116 -1 l 20 -1 "},"T":{"x_min":43,"x_max":645,"ha":695,"o":"m 43 867 l 645 867 l 645 779 l 389 779 l 389 0 l 289 0 l 289 779 l 43 779 l 43 867 "},"š":{"x_min":79,"x_max":611,"ha":695,"o":"m 600 549 l 541 462 q 534 473 534 463 q 531 487 534 483 q 461 546 506 519 q 356 574 415 574 q 306 567 330 574 q 263 550 281 561 q 233 521 244 539 q 222 482 222 504 q 230 452 222 465 q 256 426 238 438 q 307 401 274 413 q 392 373 340 388 q 561 297 512 341 q 611 190 611 254 q 592 111 611 148 q 540 45 574 73 q 456 1 505 17 q 347 -14 408 -14 q 79 86 187 -14 l 135 186 q 141 172 140 181 q 151 151 142 163 q 181 122 159 138 q 249 87 203 106 q 296 73 270 77 q 349 69 323 69 q 405 75 377 69 q 457 95 434 82 q 494 127 480 109 q 508 169 508 146 q 474 230 508 205 q 352 281 441 255 q 271 306 291 299 q 199 340 221 326 q 159 375 177 355 q 130 421 141 396 q 119 478 119 447 q 137 542 119 511 q 187 596 155 573 q 265 635 220 620 q 363 650 310 650 q 600 549 509 650 m 524 914 l 369 720 l 339 720 l 186 915 l 249 964 l 358 821 l 471 962 l 524 914 "},"Þ":{"x_min":82,"x_max":633,"ha":695,"o":"m 82 865 l 190 865 q 192 860 192 862 q 187 847 192 856 q 179 826 181 838 l 179 703 l 359 703 q 482 683 431 703 q 565 630 533 664 q 614 553 598 597 q 633 458 630 508 q 614 365 630 408 q 567 289 598 321 q 486 238 535 257 q 366 220 437 220 l 179 220 l 179 0 l 82 0 l 82 865 m 179 611 l 179 305 l 366 305 q 441 316 410 305 q 492 348 471 328 q 521 396 512 368 q 533 455 530 424 q 519 516 530 487 q 488 565 509 544 q 435 598 467 586 q 356 611 402 611 l 179 611 "},"j":{"x_min":67,"x_max":535,"ha":695,"o":"m 175 635 l 513 635 l 513 30 q 493 -92 513 -41 q 440 -175 474 -143 q 360 -223 406 -207 q 261 -242 314 -239 q 67 -153 139 -242 l 132 -67 q 139 -80 139 -73 q 144 -96 140 -87 q 161 -114 149 -104 q 203 -140 174 -125 q 269 -156 234 -156 q 372 -113 332 -156 q 413 24 413 -71 l 413 554 l 175 554 l 175 635 m 411 890 q 463 911 432 911 q 513 890 492 911 q 535 838 535 869 q 513 788 535 809 q 463 768 492 768 q 412 788 433 768 q 391 838 391 809 q 411 890 391 869 "},"1":{"x_min":122,"x_max":415,"ha":695,"o":"m 415 867 l 415 0 l 319 0 l 319 746 l 144 695 l 122 749 l 348 867 l 415 867 "},"›":{"x_min":201.28125,"x_max":476,"ha":695,"o":"m 476 351 l 476 319 l 256 84 l 201 139 l 379 334 l 211 498 l 265 555 l 476 351 "},"<":{"x_min":49,"x_max":641.171875,"ha":695,"o":"m 637 688 l 154 442 l 641 171 l 641 65 l 49 410 l 49 477 l 637 787 l 637 688 "},"t":{"x_min":97,"x_max":617,"ha":695,"o":"m 261 804 l 369 822 q 366 800 369 810 q 361 785 362 790 l 344 635 l 553 635 l 553 554 l 344 554 q 332 320 332 429 q 334 207 332 253 q 349 134 337 161 q 383 93 361 108 q 443 79 406 79 q 586 137 508 79 l 617 57 q 419 -13 521 -13 q 273 47 319 -13 q 232 244 227 108 q 234 372 232 294 q 245 554 237 450 l 97 554 l 97 635 l 250 635 l 261 804 "},"¬":{"x_min":126,"x_max":575,"ha":695,"o":"m 126 482 l 575 482 l 575 218 l 486 218 l 486 394 l 126 394 l 126 482 "},"ù":{"x_min":85.625,"x_max":610.9375,"ha":695,"o":"m 87 635 l 187 635 l 187 281 q 198 179 187 220 q 229 113 209 138 q 275 77 249 88 q 332 66 301 66 q 396 82 365 68 q 451 122 427 96 q 490 187 476 147 q 504 285 504 228 l 504 635 l 604 635 l 604 56 q 610 0 604 25 l 506 0 q 504 21 505 9 q 504 48 502 33 l 505 97 q 422 14 474 44 q 307 -15 370 -15 q 219 2 258 -15 q 149 55 180 19 q 101 147 117 91 q 85 280 85 203 l 87 635 m 337 971 l 460 766 l 390 725 l 250 912 l 337 971 "},"ï":{"x_min":138,"x_max":550,"ha":695,"o":"m 147 635 l 401 635 l 401 81 l 550 81 l 550 0 l 138 0 l 138 81 l 301 81 l 301 554 l 147 554 l 147 635 m 264 902 q 285 852 285 881 q 264 803 285 824 q 215 783 243 783 q 165 803 186 783 q 145 852 145 824 q 165 901 145 880 q 215 923 186 923 q 264 902 243 923 m 512 902 q 533 852 533 881 q 512 803 533 824 q 463 783 491 783 q 414 803 434 783 q 394 852 394 823 q 414 902 394 881 q 463 923 434 923 q 512 902 491 923 "},"Ò":{"x_min":40,"x_max":654,"ha":695,"o":"m 352 -14 q 224 18 281 -14 q 125 110 166 51 q 62 252 84 169 q 40 434 40 334 q 62 616 40 534 q 127 755 85 698 q 227 843 169 812 q 355 875 285 875 q 469 848 416 875 q 565 768 522 822 q 631 631 609 715 q 654 433 654 548 q 627 222 654 308 q 558 84 601 137 q 461 8 515 31 q 352 -14 408 -14 m 208 159 q 352 82 273 82 q 426 97 390 82 q 492 154 462 113 q 539 262 522 194 q 557 435 557 330 q 537 604 557 538 q 488 709 518 670 q 425 765 458 748 q 355 783 393 783 q 276 767 312 784 q 208 713 240 751 q 156 610 176 676 q 136 442 136 545 q 156 273 136 347 q 208 159 176 199 m 254 1099 l 467 975 l 435 917 l 199 1001 l 254 1099 "},"Ď":{"x_min":75,"x_max":639,"ha":695,"o":"m 75 865 l 276 865 q 449 834 387 865 q 554 747 511 803 q 618 609 597 690 q 639 427 639 529 q 613 248 639 327 q 545 113 588 169 q 432 28 501 57 q 259 -1 362 -1 l 75 -1 l 75 865 m 167 784 l 167 75 l 255 75 q 473 164 404 75 q 542 422 542 254 q 478 688 540 592 q 271 784 417 784 l 167 784 m 517 1048 l 335 910 l 304 910 l 134 1046 l 179 1099 l 322 1000 l 478 1094 l 517 1048 "},"&":{"x_min":50,"x_max":668,"ha":695,"o":"m 573 364 l 572 381 q 577 395 572 389 l 668 332 q 562 170 620 248 l 659 44 l 577 -17 l 501 105 q 396 18 458 51 q 266 -14 334 -14 q 179 2 219 -14 q 111 47 140 19 q 65 114 81 76 q 50 195 50 152 q 97 357 50 283 q 224 476 145 432 q 126 691 126 596 q 141 764 126 730 q 182 821 156 797 q 242 860 208 846 q 316 874 277 874 q 392 858 358 874 q 452 817 427 843 q 490 759 477 792 q 504 691 504 726 q 492 622 504 657 q 461 556 481 587 q 414 499 441 525 q 353 458 387 473 l 509 240 q 549 298 528 264 q 573 364 569 333 m 222 691 q 306 518 222 624 q 384 590 356 541 q 412 684 412 638 q 383 761 412 730 q 317 793 355 793 q 250 765 278 793 q 222 691 222 737 m 273 411 q 187 320 218 376 q 156 211 156 265 q 165 157 156 181 q 192 114 175 133 q 230 85 208 95 q 276 75 251 75 q 322 81 298 75 q 365 99 345 88 q 402 122 385 109 q 428 147 419 136 l 449 170 l 273 411 "},"˝":{"x_min":175,"x_max":600,"ha":695,"o":"m 297 971 l 385 912 l 244 725 l 175 766 l 297 971 m 512 971 l 600 912 l 459 725 l 390 766 l 512 971 "},"I":{"x_min":112,"x_max":559,"ha":695,"o":"m 122 865 l 551 865 l 551 784 l 380 784 l 380 78 l 559 78 l 559 -1 l 112 -1 l 112 80 l 283 80 l 283 784 l 122 784 l 122 865 "},"G":{"x_min":50,"x_max":639,"ha":695,"o":"m 636 729 l 567 660 q 549 686 559 665 q 485 760 529 732 q 383 789 441 789 q 300 772 343 789 q 223 715 258 755 q 167 609 189 675 q 146 443 146 543 q 164 283 146 352 q 214 167 182 213 q 289 96 246 120 q 385 72 333 72 q 549 124 475 72 l 549 330 l 392 330 l 392 415 l 639 415 l 639 76 q 384 -14 515 -14 q 245 17 307 -14 q 139 105 183 48 q 72 243 95 162 q 50 422 50 323 q 84 650 50 558 q 172 789 118 741 q 282 855 226 837 q 384 874 338 874 q 531 834 463 874 q 636 729 599 794 "},"`":{"x_min":193,"x_max":426,"ha":695,"o":"m 227 804 l 193 897 l 265 932 l 301 840 q 340 773 317 797 q 381 731 363 748 q 412 695 399 714 q 426 654 426 676 q 406 614 424 626 q 373 603 388 603 q 345 607 358 603 q 314 630 333 612 q 274 688 295 647 q 227 804 254 729 "},"·":{"x_min":249,"x_max":414,"ha":695,"o":"m 389 515 q 414 460 414 491 q 389 404 414 428 q 330 381 365 381 q 272 403 296 381 q 249 460 249 426 q 273 516 249 493 q 330 539 298 539 q 389 515 362 539 "},"¿":{"x_min":93,"x_max":608,"ha":695,"o":"m 275 788 q 252 845 252 810 q 276 901 252 878 q 333 924 301 924 q 391 900 365 924 q 417 845 417 876 q 392 789 417 813 q 333 766 368 766 q 275 788 299 766 m 608 126 q 491 20 563 58 q 340 -18 419 -18 q 235 1 281 -18 q 158 54 190 20 q 109 132 126 87 q 93 226 93 176 q 125 345 93 299 q 200 427 158 392 l 230 452 q 280 516 269 484 q 292 592 292 548 l 292 651 l 382 651 l 382 592 q 379 537 382 560 q 368 492 377 514 q 341 445 359 470 q 290 386 322 420 q 221 297 240 334 q 203 220 203 260 q 214 163 203 190 q 245 116 226 136 q 291 85 265 97 q 344 74 316 74 q 453 106 402 74 q 537 193 503 138 l 608 126 "},"ý":{"x_min":31,"x_max":643.734375,"ha":695,"o":"m 82 590 l 64 635 l 187 635 q 185 616 187 623 q 182 601 182 608 q 185 593 182 596 l 371 126 l 492 466 q 521 557 510 515 q 539 635 532 600 l 643 635 q 616 553 631 598 q 581 451 602 507 l 409 -2 l 382 -72 q 297 -203 349 -165 q 176 -242 245 -242 q 31 -187 86 -242 l 83 -99 q 90 -112 87 -103 q 94 -124 93 -121 q 100 -130 94 -124 q 114 -143 105 -137 q 137 -155 123 -149 q 168 -161 151 -161 q 239 -135 208 -161 q 301 -44 271 -110 l 321 3 l 82 590 m 405 971 l 493 912 l 352 725 l 283 766 l 405 971 "},"º":{"x_min":105,"x_max":590,"ha":695,"o":"m 133 603 q 150 709 133 661 q 196 791 167 757 q 264 844 226 825 q 345 864 303 864 q 426 847 388 864 q 491 798 463 830 q 535 720 519 766 q 551 612 551 673 q 533 505 551 553 q 487 424 516 457 q 419 373 457 390 q 339 356 381 356 q 259 374 296 356 q 193 424 221 392 q 148 502 164 457 q 133 603 133 547 m 342 786 q 253 738 291 786 q 216 608 216 691 q 253 481 216 525 q 341 437 291 437 q 430 480 392 437 q 468 607 468 524 q 431 738 468 691 q 342 786 394 786 m 105 287 l 590 287 l 590 212 l 105 212 l 105 287 "},"ź":{"x_min":70,"x_max":625,"ha":695,"o":"m 99 635 l 592 635 l 592 566 l 206 86 l 582 86 q 603 90 591 86 q 625 94 615 94 l 625 0 l 70 0 l 70 67 l 462 547 l 99 547 l 99 635 m 405 971 l 493 912 l 352 725 l 283 766 l 405 971 "},"ű":{"x_min":85.625,"x_max":610.9375,"ha":695,"o":"m 87 635 l 187 635 l 187 281 q 198 179 187 220 q 229 113 209 138 q 275 77 249 88 q 332 66 301 66 q 396 82 365 68 q 451 122 427 96 q 490 187 476 147 q 504 285 504 228 l 504 635 l 604 635 l 604 56 q 610 0 604 25 l 506 0 q 504 21 505 9 q 504 48 502 33 l 505 97 q 422 14 474 44 q 307 -15 370 -15 q 219 2 258 -15 q 149 55 180 19 q 101 147 117 91 q 85 280 85 203 l 87 635 m 297 971 l 385 912 l 244 725 l 175 766 l 297 971 m 512 971 l 600 912 l 459 725 l 390 766 l 512 971 "},"ń":{"x_min":94,"x_max":600,"ha":695,"o":"m 94 0 l 94 635 l 197 635 l 197 522 q 289 615 233 580 q 404 650 345 650 q 481 635 445 650 q 544 588 518 620 q 585 506 570 556 q 600 384 600 456 l 600 0 l 500 0 l 500 381 q 466 521 500 481 q 383 562 432 562 q 318 548 351 562 q 258 508 285 534 q 214 446 231 482 q 197 364 197 410 l 197 0 l 94 0 m 405 971 l 493 912 l 352 725 l 283 766 l 405 971 "},";":{"x_min":229,"x_max":425,"ha":695,"o":"m 425 27 q 276 -233 425 -81 l 229 -191 q 293 -113 267 -155 q 319 -45 319 -72 q 307 -20 319 -31 q 283 2 296 -8 q 259 28 270 13 q 248 61 248 43 q 270 119 248 95 q 330 143 293 143 q 395 111 366 143 q 425 27 425 79 m 389 564 q 414 507 414 539 q 389 451 414 475 q 330 428 364 428 q 273 451 298 428 q 249 507 249 475 q 273 564 249 540 q 330 588 298 588 q 389 564 362 588 "},"6":{"x_min":93,"x_max":610,"ha":695,"o":"m 398 875 q 589 795 507 875 l 520 722 q 504 746 508 733 q 484 765 500 759 q 442 784 463 779 q 401 789 420 789 q 336 775 373 789 q 268 726 300 762 q 213 624 236 690 q 188 453 190 558 q 267 530 218 502 q 372 558 316 558 q 464 537 420 558 q 539 480 507 517 q 591 390 572 442 q 610 274 610 338 q 590 157 610 210 q 537 65 571 104 q 459 6 504 27 q 362 -14 414 -14 q 247 14 297 -14 q 163 95 197 42 q 111 224 129 148 q 93 394 93 299 q 114 600 93 511 q 176 751 136 690 q 272 843 216 812 q 398 875 329 875 m 194 356 q 193 339 193 348 q 193 323 193 331 q 206 223 193 269 q 243 144 219 177 q 298 91 266 110 q 367 72 330 72 q 471 123 426 72 q 516 273 516 174 q 502 363 516 325 q 466 425 488 400 q 417 461 445 449 q 364 473 390 473 q 268 439 314 473 q 194 356 222 405 "},"n":{"x_min":94,"x_max":600,"ha":695,"o":"m 94 0 l 94 635 l 197 635 l 197 522 q 289 615 233 580 q 404 650 345 650 q 481 635 445 650 q 544 588 518 620 q 585 506 570 556 q 600 384 600 456 l 600 0 l 500 0 l 500 381 q 466 521 500 481 q 383 562 432 562 q 318 548 351 562 q 258 508 285 534 q 214 446 231 482 q 197 364 197 410 l 197 0 l 94 0 "},"":{"x_min":272,"x_max":429,"ha":695,"o":"m 429 780 q 310 571 429 688 l 272 604 q 323 667 303 633 q 344 720 344 701 q 334 741 344 731 q 315 761 325 751 q 296 781 305 770 q 287 806 287 792 q 305 853 287 834 q 353 872 324 872 q 406 846 383 872 q 429 780 429 820 "},"¤":{"x_min":94.140625,"x_max":600.078125,"ha":695,"o":"m 94 683 l 144 732 l 221 654 q 348 695 278 695 q 472 656 413 695 l 550 732 l 600 683 l 522 607 q 564 479 564 549 q 523 352 564 409 l 600 276 l 550 227 l 473 304 q 413 273 445 283 q 348 264 381 264 q 220 305 278 264 l 144 227 l 94 276 l 171 355 q 142 415 152 383 q 133 479 133 447 q 142 544 133 512 q 173 604 152 576 l 94 683 m 446 578 q 347 620 404 620 q 294 608 319 620 q 249 578 269 597 q 219 533 230 558 q 208 479 208 508 q 219 425 208 451 q 249 381 230 399 q 293 351 267 362 q 347 340 319 340 q 401 351 376 340 q 446 381 426 362 q 476 426 465 401 q 488 479 488 451 q 446 578 488 536 "},"p":{"x_min":83,"x_max":643,"ha":695,"o":"m 83 635 l 184 635 l 184 537 q 270 619 216 589 q 377 649 323 649 q 478 628 430 649 q 563 568 526 608 q 621 466 599 528 q 643 322 643 405 q 620 174 643 238 q 559 68 597 110 q 474 4 522 26 q 376 -17 426 -17 q 267 9 317 -17 q 186 83 217 35 l 186 -232 l 83 -232 l 83 635 m 184 263 q 231 116 187 160 q 341 72 276 72 q 411 83 376 72 q 475 121 445 94 q 521 192 504 148 q 539 304 539 237 q 488 493 539 426 q 345 564 437 561 q 288 554 318 564 q 236 520 259 544 q 199 457 213 497 q 184 359 184 418 l 184 263 "},"‡":{"x_min":68,"x_max":625,"ha":695,"o":"m 301 906 l 394 906 l 394 635 l 625 635 l 625 552 l 394 552 l 394 168 l 625 168 l 625 85 l 394 85 l 394 -210 l 301 -210 l 301 85 l 68 85 l 68 168 l 301 168 l 301 552 l 68 552 l 68 635 l 301 635 l 301 906 "},"ň":{"x_min":94,"x_max":600,"ha":695,"o":"m 94 0 l 94 635 l 197 635 l 197 522 q 289 615 233 580 q 404 650 345 650 q 481 635 445 650 q 544 588 518 620 q 585 506 570 556 q 600 384 600 456 l 600 0 l 500 0 l 500 381 q 466 521 500 481 q 383 562 432 562 q 318 548 351 562 q 258 508 285 534 q 214 446 231 482 q 197 364 197 410 l 197 0 l 94 0 m 524 914 l 369 720 l 339 720 l 186 915 l 249 964 l 358 821 l 471 962 l 524 914 "},"⁴":{"x_min":142.390625,"x_max":562,"ha":695,"o":"m 419 890 l 474 890 l 474 549 l 562 549 l 562 484 l 474 484 l 474 349 l 395 349 l 395 485 l 142 485 l 142 533 l 419 890 m 396 755 l 232 549 l 396 549 l 396 755 "},"ę":{"x_min":68,"x_max":618,"ha":695,"o":"m 359 650 q 456 631 409 650 q 539 577 504 613 q 596 483 574 540 q 618 348 618 426 q 617 325 618 337 q 615 303 616 314 l 163 303 q 186 191 166 236 q 237 118 206 146 q 305 78 268 90 q 380 67 343 67 q 544 137 479 67 l 600 82 l 522 -11 q 488 -55 500 -37 q 470 -86 476 -73 q 464 -108 465 -98 q 464 -127 464 -118 q 477 -161 464 -147 q 516 -175 490 -175 q 549 -169 532 -175 q 589 -150 566 -163 l 587 -218 q 544 -237 566 -231 q 500 -243 522 -243 q 414 -215 448 -243 q 381 -140 381 -187 q 458 -1 381 -75 q 362 -14 409 -14 q 245 8 298 -14 q 152 73 191 30 q 90 177 112 116 q 68 318 68 238 q 90 457 68 395 q 152 561 112 519 q 245 627 193 604 q 359 650 298 650 m 168 381 l 516 381 q 517 391 516 386 q 518 403 518 396 q 504 469 518 437 q 469 523 491 500 q 417 560 447 546 q 352 574 387 574 q 234 527 287 574 q 168 381 181 480 "},"S":{"x_min":72,"x_max":632,"ha":695,"o":"m 604 762 l 542 679 q 535 690 535 681 q 531 703 534 699 q 460 766 505 742 q 348 790 415 790 q 242 752 284 790 q 200 663 200 715 q 210 611 200 633 q 242 568 220 588 q 305 525 263 547 q 413 477 347 504 q 519 425 477 451 q 586 370 561 400 q 621 309 611 341 q 632 236 632 276 q 615 146 632 191 q 563 65 598 101 q 473 8 527 30 q 342 -14 419 -14 q 72 97 174 -14 l 128 197 q 135 183 135 192 q 140 167 135 173 q 226 100 172 127 q 356 74 280 74 q 428 87 395 74 q 484 121 460 100 q 522 173 508 143 q 536 236 536 202 q 526 283 536 262 q 497 324 517 305 q 438 361 476 342 q 337 405 399 380 q 224 458 269 431 q 151 513 179 485 q 111 573 123 541 q 100 642 100 605 q 120 731 100 690 q 175 804 140 773 q 259 853 211 836 q 363 871 308 871 q 497 842 434 871 q 604 762 559 813 "},"/":{"x_min":89,"x_max":607,"ha":695,"o":"m 89 -17 l 523 924 l 607 880 l 170 -58 l 89 -17 "},"y":{"x_min":31,"x_max":643.734375,"ha":695,"o":"m 82 590 l 64 635 l 187 635 q 185 616 187 623 q 182 601 182 608 q 185 593 182 596 l 371 126 l 492 466 q 521 557 510 515 q 539 635 532 600 l 643 635 q 616 553 631 598 q 581 451 602 507 l 409 -2 l 382 -72 q 297 -203 349 -165 q 176 -242 245 -242 q 31 -187 86 -242 l 83 -99 q 90 -112 87 -103 q 94 -124 93 -121 q 100 -130 94 -124 q 114 -143 105 -137 q 137 -155 123 -149 q 168 -161 151 -161 q 239 -135 208 -161 q 301 -44 271 -110 l 321 3 l 82 590 "},"g":{"x_min":52,"x_max":659,"ha":695,"o":"m 215 533 q 184 488 194 512 q 175 435 175 463 q 186 382 175 408 q 215 338 197 357 q 260 309 234 320 q 313 298 286 298 q 367 309 342 298 q 412 339 392 320 q 442 383 431 358 q 454 435 454 408 q 442 488 454 463 q 412 533 431 514 q 367 563 392 552 q 313 575 341 575 q 215 533 256 575 m 470 594 q 628 651 536 651 l 646 651 l 659 567 q 640 569 649 568 q 621 570 631 570 q 512 542 560 570 q 544 435 544 493 q 525 351 544 390 q 476 281 507 311 q 403 234 445 251 q 314 217 362 217 q 234 232 276 217 q 190 159 190 189 q 217 123 190 136 q 291 109 244 109 q 344 111 317 109 q 395 114 371 114 q 502 102 457 114 q 575 68 547 90 q 617 18 603 47 q 631 -44 631 -11 q 612 -117 631 -81 q 558 -179 594 -152 q 467 -223 522 -207 q 339 -239 413 -239 q 208 -227 263 -239 q 120 -194 153 -215 q 69 -146 86 -173 q 52 -89 52 -119 q 156 51 52 -14 q 105 138 105 77 q 177 258 105 198 q 107 333 132 287 q 83 430 83 379 q 102 519 83 478 q 154 590 121 560 q 229 638 187 621 q 316 656 271 656 q 470 594 409 656 m 222 32 q 144 -64 144 -11 q 159 -110 144 -91 q 202 -141 175 -129 q 266 -158 229 -152 q 343 -164 303 -164 q 483 -133 428 -164 q 539 -51 539 -102 q 507 6 536 -14 q 418 27 479 27 q 404 26 411 27 q 390 26 397 26 q 296 28 337 26 q 222 32 254 30 "},"ĸ":{"x_min":92,"x_max":666,"ha":695,"o":"m 92 635 l 204 635 q 207 632 207 632 q 201 619 207 628 q 192 598 194 610 l 192 343 l 511 638 q 585 631 543 631 l 621 631 l 353 379 l 666 -1 l 536 -5 l 275 318 l 192 240 l 192 -1 l 92 -1 l 92 635 "},"²":{"x_min":154,"x_max":555,"ha":695,"o":"m 154 769 q 240 854 185 824 q 366 885 294 885 q 432 873 401 885 q 489 840 464 861 q 529 790 514 819 q 544 726 544 761 q 537 678 544 699 q 513 636 530 657 q 466 591 496 615 q 388 532 435 567 q 322 479 352 504 q 269 427 292 453 l 521 427 q 536 433 528 427 q 550 439 543 439 l 555 439 l 555 352 l 168 352 l 168 413 q 246 503 205 463 q 350 590 287 543 l 389 621 q 443 677 426 648 q 461 728 461 705 q 433 788 461 763 q 361 813 405 813 q 233 755 279 813 q 225 741 228 750 q 219 727 221 732 l 154 769 "},"ë":{"x_min":68,"x_max":618,"ha":695,"o":"m 359 650 q 456 631 409 650 q 539 577 504 613 q 596 483 574 540 q 618 348 618 426 q 617 325 618 337 q 615 303 616 314 l 164 303 q 186 191 166 236 q 237 118 207 146 q 305 78 268 90 q 380 67 343 67 q 544 137 479 67 l 600 82 q 377 -14 519 -14 q 250 7 308 -14 q 152 70 193 29 q 90 174 112 112 q 68 315 68 236 q 90 458 68 395 q 153 563 113 520 q 245 627 193 605 q 359 650 298 650 m 168 381 l 516 381 q 517 391 516 386 q 518 403 518 396 q 504 469 518 437 q 469 523 491 500 q 417 560 447 546 q 352 574 387 574 q 234 527 287 574 q 168 381 182 480 m 276 902 q 297 852 297 881 q 276 803 297 824 q 227 783 255 783 q 177 803 198 783 q 157 852 157 824 q 177 901 157 880 q 227 923 198 923 q 276 902 255 923 m 524 902 q 545 852 545 881 q 524 803 545 824 q 475 783 503 783 q 426 803 446 783 q 406 852 406 823 q 426 902 406 881 q 475 923 446 923 q 524 902 503 923 "},"ƒ":{"x_min":25,"x_max":667,"ha":695,"o":"m 667 861 l 621 770 q 608 783 610 770 q 573 834 603 814 q 512 854 544 854 q 466 845 486 854 q 430 813 445 836 q 404 749 415 790 q 390 645 394 708 l 381 532 l 553 532 l 553 451 l 375 451 l 341 32 q 316 -96 334 -43 q 272 -181 298 -148 q 211 -228 245 -213 q 138 -243 177 -243 q 25 -194 70 -243 l 81 -105 q 90 -113 86 -106 q 102 -129 95 -120 q 120 -144 108 -138 q 151 -151 133 -151 q 215 -103 190 -151 q 248 36 241 -56 l 279 451 l 111 451 l 111 532 l 284 532 l 294 659 q 362 868 305 802 q 511 935 419 935 q 667 861 605 935 "},"J":{"x_min":68,"x_max":634,"ha":695,"o":"m 238 865 l 634 865 l 634 784 l 501 784 l 501 290 q 485 148 501 205 q 434 54 469 92 q 359 0 399 16 q 272 -15 319 -15 q 68 80 148 -15 l 133 160 q 138 146 137 155 q 142 132 138 137 l 159 115 q 177 100 165 108 q 205 86 190 93 q 238 75 221 80 q 271 71 255 71 q 373 119 341 71 q 405 289 405 168 l 405 784 l 238 784 l 238 865 "},"Ã":{"x_min":20.75,"x_max":670.8125,"ha":695,"o":"m 20 0 l 326 881 l 337 881 l 670 0 l 570 0 l 474 253 l 200 253 l 116 0 l 20 0 m 452 328 l 330 658 l 219 328 l 452 328 m 181 948 l 119 992 q 276 1114 195 1114 q 328 1098 301 1114 q 379 1062 355 1082 q 422 1025 403 1041 q 451 1010 441 1010 q 498 1031 483 1010 q 537 1083 514 1052 l 590 1027 q 517 953 548 977 q 455 929 487 929 q 398 945 423 929 q 351 981 373 961 q 312 1016 330 1000 q 277 1033 294 1033 q 228 1014 246 1033 q 181 948 210 995 "},"ŕ":{"x_min":137,"x_max":636,"ha":695,"o":"m 137 635 l 239 635 l 237 512 q 329 614 266 579 q 465 650 393 650 q 636 580 569 650 l 590 485 q 562 519 574 505 q 535 543 549 533 q 502 558 520 552 q 460 564 485 564 q 373 542 414 564 q 303 485 333 520 q 255 404 273 450 q 237 308 237 358 l 237 -1 l 137 -1 l 137 635 m 405 971 l 493 912 l 352 725 l 283 766 l 405 971 "},"©":{"x_min":19,"x_max":691,"ha":695,"o":"m 537 459 l 464 433 q 460 449 459 442 q 458 464 460 456 q 448 481 456 472 q 419 505 441 490 q 363 520 395 520 q 321 513 344 520 q 280 490 299 506 q 249 449 262 474 q 237 390 237 425 q 247 333 237 360 q 275 285 257 305 q 316 253 292 265 q 367 242 339 242 q 428 258 401 242 q 471 305 456 275 l 533 264 q 457 195 503 220 q 361 170 412 170 q 282 187 318 170 q 218 233 245 204 q 174 301 190 262 q 159 383 159 340 q 175 464 159 426 q 220 530 192 502 q 282 573 247 557 q 352 589 316 589 q 475 553 427 589 q 537 459 523 517 m 591 128 q 353 26 492 26 q 223 53 284 26 q 116 130 162 81 q 45 242 71 178 q 19 380 19 306 q 45 518 19 453 q 117 631 71 583 q 224 708 163 680 q 355 736 285 736 q 484 708 423 736 q 591 631 545 680 q 663 518 636 583 q 691 380 691 453 q 591 128 691 233 m 357 678 q 250 654 300 678 q 163 591 200 631 q 104 496 125 551 q 83 379 83 442 q 104 263 83 318 q 163 169 125 209 q 250 107 200 130 q 357 84 300 84 q 462 107 412 84 q 549 171 511 131 q 608 265 586 212 q 631 381 631 319 q 609 496 631 442 q 550 590 588 549 q 463 654 513 630 q 357 678 413 678 "},"˘":{"x_min":140,"x_max":551,"ha":695,"o":"m 190 897 q 257 827 216 855 q 346 800 298 800 q 512 897 435 800 l 551 838 q 460 758 513 788 q 348 728 406 728 q 140 834 230 728 l 190 897 "},"Ă":{"x_min":20.75,"x_max":670.8125,"ha":695,"o":"m 20 0 l 326 881 l 337 881 l 670 0 l 570 0 l 474 253 l 200 253 l 116 0 l 20 0 m 452 328 l 330 658 l 219 328 l 452 328 m 177 1089 q 244 1019 203 1047 q 332 992 285 992 q 498 1089 423 992 l 537 1030 q 447 950 500 980 q 335 920 393 920 q 126 1026 216 920 l 177 1089 "},"↑":{"x_min":82,"x_max":613,"ha":695,"o":"m 82 561 l 341 889 l 372 889 l 613 558 l 543 513 l 396 711 l 396 -47 l 303 -47 l 303 712 l 141 513 l 82 561 "},"D":{"x_min":75,"x_max":639,"ha":695,"o":"m 75 865 l 276 865 q 449 834 387 865 q 554 747 511 803 q 618 609 597 690 q 639 427 639 529 q 613 248 639 327 q 545 113 588 169 q 432 28 501 57 q 259 -1 362 -1 l 75 -1 l 75 865 m 167 784 l 167 75 l 255 75 q 473 164 404 75 q 542 422 542 254 q 478 688 540 592 q 271 784 417 784 l 167 784 "},"ÿ":{"x_min":31,"x_max":643.734375,"ha":695,"o":"m 82 590 l 64 635 l 187 635 q 185 616 187 623 q 182 601 182 608 q 185 593 182 596 l 371 126 l 492 466 q 521 557 510 515 q 539 635 532 600 l 643 635 q 616 553 631 598 q 581 451 602 507 l 409 -2 l 382 -72 q 297 -203 349 -165 q 176 -242 245 -242 q 31 -187 86 -242 l 83 -99 q 90 -112 87 -103 q 94 -124 93 -121 q 100 -130 94 -124 q 114 -143 105 -137 q 137 -155 123 -149 q 168 -161 151 -161 q 239 -135 208 -161 q 301 -44 271 -110 l 321 3 l 82 590 m 275 902 q 296 852 296 881 q 275 803 296 824 q 226 783 254 783 q 176 803 197 783 q 156 852 156 824 q 176 901 156 880 q 226 923 197 923 q 275 902 254 923 m 523 902 q 544 852 544 881 q 523 803 544 824 q 474 783 502 783 q 425 803 445 783 q 405 852 405 823 q 425 902 405 881 q 474 923 445 923 q 523 902 502 923 "},"ĺ":{"x_min":109,"x_max":583,"ha":695,"o":"m 117 924 l 397 924 l 397 81 l 583 81 l 583 0 l 109 0 l 109 81 l 297 81 l 297 843 l 117 843 l 117 924 m 427 1159 l 483 1061 l 247 977 l 216 1035 l 427 1159 "},"ł":{"x_min":109,"x_max":583,"ha":695,"o":"m 118 924 l 397 924 l 397 514 l 485 546 q 502 554 493 549 q 523 566 511 559 l 523 465 l 397 421 l 397 81 l 583 81 l 583 0 l 109 0 l 109 81 l 297 81 l 297 387 l 187 350 l 187 442 l 297 479 l 297 843 l 118 843 l 118 924 "},"Ł":{"x_min":27,"x_max":619,"ha":695,"o":"m 101 865 l 212 865 q 214 862 214 865 q 209 844 214 856 q 201 817 203 833 l 201 455 l 431 530 q 451 538 442 534 q 466 544 460 541 l 466 455 l 201 370 l 201 84 l 619 84 l 619 -1 l 101 -1 l 101 337 l 27 313 l 27 398 l 101 423 l 101 865 "},"$":{"x_min":84,"x_max":639,"ha":695,"o":"m 327 904 l 416 904 q 417 900 417 902 q 413 891 417 897 q 408 875 409 884 l 408 822 q 614 715 537 807 l 554 640 q 546 652 547 642 q 539 668 545 661 q 408 738 490 724 l 408 472 q 511 431 467 452 q 582 385 554 410 q 625 326 611 359 q 639 251 639 294 q 623 173 639 210 q 577 104 607 135 q 504 50 547 73 q 408 21 461 28 l 408 -65 l 327 -65 l 327 19 q 84 129 177 30 l 143 213 q 149 199 149 208 q 153 184 149 189 q 327 100 222 109 l 327 405 q 164 492 218 441 q 110 619 110 542 q 126 691 110 656 q 170 751 142 725 q 238 795 199 777 q 327 821 278 814 l 327 904 m 408 378 l 408 102 q 511 156 474 115 q 549 245 549 197 q 515 325 549 295 q 408 378 482 355 m 327 501 l 327 740 q 233 701 264 733 q 202 629 202 669 q 327 501 202 550 "},"w":{"x_min":22,"x_max":668,"ha":695,"o":"m 22 635 l 122 635 l 122 629 q 119 610 122 621 q 116 590 116 600 q 117 582 116 585 l 212 125 l 320 575 l 381 575 l 516 126 q 546 328 534 248 q 564 459 558 407 q 572 545 570 511 q 575 614 575 579 l 575 635 l 668 635 q 620 315 647 473 q 562 -1 594 157 l 467 -1 l 351 409 l 240 -1 l 149 -1 l 22 635 "},"\\":{"x_min":89,"x_max":607,"ha":695,"o":"m 607 -17 l 525 -58 l 89 880 l 170 924 l 607 -17 "},"Ì":{"x_min":112,"x_max":559,"ha":695,"o":"m 122 865 l 551 865 l 551 784 l 380 784 l 380 78 l 559 78 l 559 -1 l 112 -1 l 112 80 l 283 80 l 283 784 l 122 784 l 122 865 m 254 1099 l 467 975 l 435 917 l 199 1001 l 254 1099 "},"Ç":{"x_min":57,"x_max":652,"ha":695,"o":"m 454 -151 q 388 -118 454 -118 l 347 -118 l 361 -14 q 247 19 302 -8 q 150 99 193 47 q 81 232 106 152 q 57 420 57 312 q 88 641 57 553 q 168 779 120 728 q 274 851 216 830 q 383 872 332 872 q 467 859 426 872 q 544 824 508 846 q 607 771 579 802 q 652 700 635 739 l 558 655 q 553 668 553 659 q 549 693 553 685 q 476 766 521 739 q 382 794 432 794 q 293 769 334 794 q 219 698 251 745 q 169 585 188 652 q 151 434 151 519 q 169 284 151 352 q 219 169 187 217 q 296 95 252 121 q 390 69 340 69 q 489 97 441 69 q 566 175 537 126 l 639 127 q 545 32 602 69 q 422 -12 488 -4 l 415 -65 l 438 -66 q 533 -142 533 -73 q 493 -213 533 -181 q 372 -246 453 -246 q 218 -194 290 -246 l 252 -136 q 390 -186 312 -186 q 440 -175 426 -186 q 454 -151 454 -165 "},"C":{"x_min":57,"x_max":652,"ha":695,"o":"m 553 668 q 549 693 553 685 q 476 766 521 739 q 382 794 432 794 q 293 769 334 794 q 219 698 251 745 q 169 585 187 652 q 151 434 151 519 q 169 284 151 352 q 219 169 187 217 q 296 95 252 121 q 390 69 340 69 q 489 97 441 69 q 566 175 537 126 l 639 127 q 589 66 618 93 q 527 22 559 40 q 461 -4 494 4 q 395 -14 429 -14 q 263 11 320 -14 q 157 91 205 37 q 83 229 109 145 q 57 427 57 312 q 87 640 57 555 q 168 777 118 726 q 274 850 218 828 q 383 872 330 872 q 467 859 426 872 q 544 824 508 846 q 607 771 579 802 q 652 700 635 739 l 558 655 q 553 668 553 659 "},"!":{"x_min":250,"x_max":415,"ha":695,"o":"m 390 123 q 415 65 415 98 q 390 9 415 33 q 331 -15 365 -15 q 274 8 298 -15 q 250 65 250 32 q 274 123 250 98 q 331 149 298 149 q 390 123 365 149 m 334 928 q 385 900 366 928 q 405 811 405 873 q 403 774 405 796 q 399 725 402 753 l 392 653 l 367 270 l 298 270 l 277 653 q 274 699 276 675 q 270 746 272 723 q 265 790 268 769 q 263 825 263 811 q 282 900 263 873 q 334 928 301 928 "},"ç":{"x_min":78,"x_max":635,"ha":695,"o":"m 454 -151 q 388 -118 454 -118 l 347 -118 l 361 -14 q 247 18 299 -8 q 158 89 195 45 q 99 192 121 133 q 78 320 78 251 q 101 448 78 388 q 167 552 125 508 q 268 622 209 597 q 397 647 328 647 q 534 615 472 647 q 635 528 596 584 l 564 447 q 556 456 557 451 q 556 469 555 460 q 547 489 557 477 q 512 523 537 502 q 383 562 465 562 q 306 545 343 562 q 242 497 269 528 q 197 422 214 466 q 181 324 181 378 q 197 224 181 270 q 243 145 214 179 q 312 93 272 112 q 401 75 353 75 q 566 153 497 75 l 625 84 q 422 -14 542 -2 l 415 -65 l 438 -66 q 533 -142 533 -73 q 493 -213 533 -181 q 372 -246 453 -246 q 218 -194 290 -246 l 252 -136 q 390 -186 312 -186 q 440 -175 426 -186 q 454 -151 454 -165 "},"È":{"x_min":82,"x_max":612,"ha":695,"o":"m 82 867 l 612 867 l 612 781 l 174 781 l 174 496 l 536 496 l 536 407 l 174 407 l 174 86 l 608 86 l 608 0 l 82 0 l 82 867 m 254 1099 l 467 975 l 435 917 l 199 1001 l 254 1099 "},"X":{"x_min":57.203125,"x_max":650.296875,"ha":695,"o":"m 526 867 l 623 867 l 404 443 l 650 0 l 540 0 l 348 343 l 162 0 l 57 0 l 293 441 l 61 867 l 165 867 l 347 537 l 526 867 "},"ô":{"x_min":56,"x_max":639,"ha":695,"o":"m 353 649 q 463 626 411 649 q 554 560 515 603 q 616 455 593 516 q 639 316 639 393 q 616 177 639 238 q 555 72 594 116 q 464 5 516 28 q 351 -17 411 -17 q 237 8 290 -17 q 143 76 183 33 q 79 181 103 120 q 56 313 56 243 q 80 447 56 384 q 145 553 104 509 q 240 623 186 597 q 353 649 294 649 m 539 313 q 523 420 539 373 q 480 498 507 466 q 420 547 454 530 q 349 564 386 564 q 277 547 311 564 q 218 498 243 530 q 177 421 192 466 q 162 319 162 376 q 177 217 162 263 q 218 138 192 171 q 278 87 243 105 q 351 69 313 69 q 424 84 390 69 q 484 132 458 100 q 524 209 509 163 q 539 313 539 255 m 186 756 l 340 951 l 371 951 l 524 755 l 460 706 l 351 849 l 238 708 l 186 756 "},"đ":{"x_min":53,"x_max":661,"ha":695,"o":"m 209 522 q 150 339 150 468 q 198 146 150 219 q 329 74 246 74 q 376 82 356 74 q 418 105 397 90 q 455 140 439 119 q 480 187 472 161 q 495 321 495 237 q 491 409 495 374 q 478 469 487 444 q 455 510 469 494 q 421 539 441 526 q 374 562 396 554 q 333 570 353 570 q 265 558 293 570 q 209 522 237 547 m 600 755 l 600 58 q 606 0 600 24 l 505 0 q 500 47 500 16 l 500 101 q 416 17 469 48 q 310 -14 364 -14 q 211 6 257 -14 q 129 70 165 27 q 73 175 94 112 q 53 323 53 238 q 76 472 53 410 q 138 573 100 534 q 223 632 176 613 q 318 651 270 651 q 432 621 385 651 q 504 541 480 591 l 504 755 l 399 755 l 399 829 l 504 829 l 504 924 l 612 924 q 606 905 612 915 q 600 884 600 894 l 600 829 l 661 829 l 661 755 l 600 755 "},"}":{"x_min":127.828125,"x_max":622.828125,"ha":695,"o":"m 469 643 l 465 543 q 499 429 465 464 q 595 395 532 395 l 622 395 l 622 317 l 593 317 q 501 285 533 317 q 469 161 469 253 l 474 22 q 418 -161 474 -101 q 243 -221 362 -221 l 129 -221 l 129 -143 l 205 -143 q 255 -141 236 -143 q 285 -136 273 -140 q 305 -129 297 -133 q 319 -119 312 -124 q 377 23 377 -79 l 372 140 q 489 356 372 315 q 368 560 368 407 l 372 657 q 338 770 372 736 q 232 804 303 804 l 127 804 l 127 885 l 170 885 q 271 881 218 885 q 368 851 323 878 q 441 776 412 825 q 469 643 469 728 "},"â":{"x_min":68,"x_max":604,"ha":695,"o":"m 126 559 q 352 649 210 649 q 536 589 469 649 q 604 393 604 530 l 604 0 l 509 0 l 509 69 q 281 -15 408 -15 q 192 0 231 -15 q 124 40 152 15 q 82 97 97 65 q 68 161 68 129 q 150 312 68 257 q 388 374 233 368 l 508 374 l 508 397 q 468 530 508 492 q 345 568 428 568 q 174 496 242 568 l 126 559 m 512 297 l 488 297 q 451 298 469 297 q 417 299 434 299 q 292 288 341 299 q 216 260 244 278 q 178 218 188 241 q 168 169 168 196 q 206 93 168 125 q 302 61 245 61 q 377 74 344 61 q 435 106 410 87 q 476 145 460 125 q 498 180 491 165 q 512 255 512 208 l 512 297 m 196 756 l 350 951 l 381 951 l 534 755 l 470 706 l 361 849 l 248 708 l 196 756 "},"ø":{"x_min":56,"x_max":639,"ha":695,"o":"m 350 564 q 279 546 313 564 q 218 497 245 529 q 177 422 192 466 q 162 326 162 379 q 209 152 162 220 l 422 545 q 350 564 387 564 m 536 579 q 639 323 639 484 q 616 179 639 243 q 555 72 594 116 q 464 5 516 28 q 354 -17 412 -17 q 225 13 285 -17 l 169 -89 l 97 -51 l 158 60 q 56 306 56 159 q 80 444 56 382 q 145 552 104 507 q 241 623 186 597 q 357 649 296 649 q 465 625 411 649 l 516 721 l 590 680 l 536 579 m 487 491 l 270 92 q 354 69 310 69 q 425 85 392 69 q 484 133 458 102 q 524 209 509 164 q 539 309 539 253 q 487 491 539 423 "},"ŋ":{"x_min":94,"x_max":600,"ha":695,"o":"m 94 0 l 94 635 l 197 635 l 197 522 q 289 615 233 580 q 404 650 345 650 q 481 635 445 650 q 544 588 518 620 q 585 507 570 556 q 600 384 600 457 l 600 78 q 532 -167 600 -91 q 363 -244 465 -244 q 293 -232 327 -244 q 229 -196 259 -220 l 276 -104 q 284 -113 281 -105 q 294 -128 287 -120 q 320 -144 302 -136 q 365 -152 339 -152 q 500 61 500 -152 l 500 381 q 466 521 500 481 q 383 562 432 562 q 318 548 351 562 q 257 508 285 534 q 212 447 228 483 q 197 365 197 411 l 197 0 l 94 0 "},"Ä":{"x_min":20.75,"x_max":670.8125,"ha":695,"o":"m 20 0 l 326 881 l 337 881 l 670 0 l 570 0 l 474 253 l 200 253 l 116 0 l 20 0 m 452 328 l 330 658 l 219 328 l 452 328 m 259 1075 q 280 1025 280 1054 q 259 976 280 997 q 209 956 238 956 q 160 976 181 956 q 140 1025 140 997 q 160 1074 140 1053 q 209 1096 181 1096 q 259 1075 238 1096 m 507 1075 q 528 1025 528 1054 q 507 976 528 997 q 457 956 486 956 q 409 976 429 956 q 389 1025 389 996 q 409 1075 389 1054 q 457 1096 429 1096 q 507 1075 486 1096 "},"ř":{"x_min":137,"x_max":636,"ha":695,"o":"m 137 635 l 239 635 l 237 512 q 329 614 266 579 q 465 650 393 650 q 636 580 569 650 l 590 485 q 562 519 574 505 q 535 543 549 533 q 502 558 520 552 q 460 564 485 564 q 373 542 414 564 q 303 485 333 520 q 255 404 273 450 q 237 308 237 358 l 237 -1 l 137 -1 l 137 635 m 524 914 l 369 720 l 339 720 l 186 915 l 249 964 l 358 821 l 471 962 l 524 914 "},"N":{"x_min":70,"x_max":630.71875,"ha":695,"o":"m 70 0 l 70 865 l 164 865 l 528 223 l 528 866 l 630 866 q 625 848 630 858 q 621 828 621 838 l 621 0 l 544 0 l 163 680 l 163 0 l 70 0 "},"⁄":{"x_min":106,"x_max":607,"ha":695,"o":"m 106 -21 l 540 924 l 607 886 l 171 -58 l 106 -21 "},"2":{"x_min":101,"x_max":609,"ha":695,"o":"m 108 730 q 210 834 145 797 q 349 871 274 871 q 446 852 401 871 q 527 800 492 833 q 581 722 562 766 q 601 627 601 677 q 589 551 601 587 q 557 482 577 515 q 512 420 538 450 q 459 365 487 390 l 376 287 q 335 248 357 270 q 291 198 313 225 q 249 143 270 172 q 213 85 228 114 l 575 85 q 590 91 582 85 q 604 97 597 97 l 609 97 l 609 0 l 101 0 l 101 61 q 212 236 152 162 q 327 359 271 309 l 393 420 q 450 479 428 452 q 484 531 471 506 q 500 579 496 556 q 505 626 505 602 q 492 685 505 656 q 457 736 480 713 q 405 772 434 759 q 346 786 377 786 q 282 775 310 786 q 232 750 253 765 q 198 720 210 736 q 184 691 185 704 q 178 675 181 679 l 108 730 "},"ü":{"x_min":85.625,"x_max":610.9375,"ha":695,"o":"m 87 635 l 187 635 l 187 281 q 198 179 187 220 q 229 113 209 138 q 275 77 249 88 q 332 66 301 66 q 396 82 365 68 q 451 122 427 96 q 490 187 476 147 q 504 285 504 228 l 504 635 l 604 635 l 604 56 q 610 0 604 25 l 506 0 q 504 21 505 9 q 504 48 502 33 l 505 97 q 422 14 474 44 q 307 -15 370 -15 q 219 2 258 -15 q 149 55 180 19 q 101 147 117 91 q 85 280 85 203 l 87 635 m 275 902 q 296 852 296 881 q 275 803 296 824 q 226 783 254 783 q 176 803 197 783 q 156 852 156 824 q 176 901 156 880 q 226 923 197 923 q 275 902 254 923 m 523 902 q 544 852 544 881 q 523 803 544 824 q 474 783 502 783 q 425 803 445 783 q 405 852 405 823 q 425 902 405 881 q 474 923 445 923 q 523 902 502 923 "},"˜":{"x_min":126,"x_max":595,"ha":695,"o":"m 187 773 l 126 817 q 282 939 200 939 q 336 923 307 939 q 386 887 364 907 q 427 850 409 866 q 456 835 446 835 q 484 840 472 835 q 505 856 496 846 q 522 879 514 866 q 543 908 531 892 l 595 852 q 523 778 553 802 q 461 754 493 754 q 404 770 429 754 q 359 806 378 786 q 320 841 339 825 q 284 858 300 858 q 235 839 253 858 q 187 773 217 820 "},"Ó":{"x_min":40,"x_max":654,"ha":695,"o":"m 352 -14 q 224 18 281 -14 q 125 110 166 51 q 62 252 84 169 q 40 434 40 334 q 62 616 40 534 q 127 755 85 698 q 227 843 169 812 q 355 875 285 875 q 469 848 416 875 q 565 768 522 822 q 631 631 609 715 q 654 433 654 548 q 627 222 654 308 q 558 84 601 137 q 461 8 515 31 q 352 -14 408 -14 m 208 159 q 352 82 273 82 q 426 97 390 82 q 492 154 462 113 q 539 262 522 194 q 557 435 557 330 q 537 604 557 538 q 488 709 518 670 q 425 765 458 748 q 355 783 393 783 q 276 767 312 784 q 208 713 240 751 q 156 610 176 676 q 136 442 136 545 q 156 273 136 347 q 208 159 176 199 m 451 1099 l 507 1001 l 271 917 l 240 975 l 451 1099 "},"ˇ":{"x_min":186,"x_max":524,"ha":695,"o":"m 524 914 l 369 720 l 339 720 l 186 915 l 249 964 l 358 821 l 471 962 l 524 914 "},"Ÿ":{"x_min":38.3125,"x_max":656.859375,"ha":695,"o":"m 38 865 l 149 865 l 362 445 l 553 865 l 656 865 l 411 341 l 411 0 l 305 0 l 305 341 l 38 865 m 269 1075 q 290 1025 290 1054 q 269 976 290 997 q 219 956 248 956 q 170 976 191 956 q 150 1025 150 997 q 170 1074 150 1053 q 219 1096 191 1096 q 269 1075 248 1096 m 517 1075 q 538 1025 538 1054 q 517 976 538 997 q 467 956 496 956 q 419 976 439 956 q 399 1025 399 996 q 419 1075 399 1054 q 467 1096 439 1096 q 517 1075 496 1096 "},"€":{"x_min":46,"x_max":644,"ha":695,"o":"m 644 797 l 609 703 q 600 719 605 705 q 577 749 595 734 q 529 777 559 763 q 451 791 499 791 q 309 738 373 791 q 221 575 244 686 l 564 575 l 533 494 l 208 494 q 206 450 206 470 q 206 416 206 431 l 206 383 l 492 383 l 460 302 l 214 302 q 298 127 233 187 q 454 68 364 68 q 602 125 538 68 l 643 55 q 448 -15 561 -15 q 333 5 387 -15 q 236 65 279 25 q 165 164 194 105 q 126 302 136 223 l 46 302 l 64 383 l 119 383 q 118 397 119 389 q 118 413 118 405 q 122 494 118 453 l 46 494 l 64 575 l 134 575 q 185 712 151 655 q 262 804 219 769 q 356 856 305 840 q 456 872 406 872 q 644 797 570 872 "},"ß":{"x_min":76,"x_max":644,"ha":695,"o":"m 76 0 l 76 587 q 145 844 76 759 q 331 929 214 929 q 428 908 382 929 q 508 855 474 888 q 562 777 542 821 q 583 684 583 733 q 553 574 583 624 q 473 498 524 524 q 544 462 512 485 q 598 405 576 438 q 632 333 620 373 q 644 251 644 294 q 624 146 644 194 q 570 62 605 98 q 489 6 535 26 q 389 -14 443 -14 q 245 29 308 -14 l 293 107 q 395 74 335 74 q 452 88 424 74 q 503 125 481 103 q 538 178 525 148 q 552 239 552 208 q 536 325 549 286 q 497 391 522 364 q 433 432 473 417 q 338 447 394 447 l 297 447 l 297 528 l 347 528 q 397 537 372 528 q 443 568 423 547 q 476 620 463 588 q 489 695 489 651 q 477 752 489 724 q 443 801 465 780 q 392 835 422 823 q 328 848 363 848 q 261 829 291 848 q 211 776 232 810 q 180 695 190 742 q 170 589 170 648 l 170 0 l 76 0 "},"s":{"x_min":79,"x_max":611,"ha":695,"o":"m 600 549 l 541 462 q 534 473 534 463 q 531 487 534 483 q 461 546 506 519 q 356 574 415 574 q 306 567 330 574 q 263 550 281 561 q 233 521 244 539 q 222 482 222 504 q 230 452 222 465 q 256 426 238 438 q 307 401 274 413 q 392 373 340 388 q 561 297 512 341 q 611 190 611 254 q 592 111 611 148 q 540 45 574 73 q 456 1 505 17 q 347 -14 408 -14 q 79 86 187 -14 l 135 186 q 141 172 140 181 q 151 151 142 163 q 181 122 159 138 q 249 87 203 106 q 296 73 270 77 q 349 69 323 69 q 405 75 377 69 q 457 95 434 82 q 494 127 480 109 q 508 169 508 146 q 474 230 508 205 q 352 281 441 255 q 271 306 291 299 q 199 340 221 326 q 159 375 177 355 q 130 421 141 396 q 119 478 119 447 q 137 542 119 511 q 187 596 155 573 q 265 635 220 620 q 363 650 310 650 q 600 549 509 650 "},"?":{"x_min":89,"x_max":603,"ha":695,"o":"m 421 118 q 445 61 445 91 q 420 5 445 29 q 363 -18 396 -18 q 305 5 329 -18 q 281 61 281 29 q 305 117 281 93 q 363 142 329 142 q 421 118 394 142 m 89 779 q 205 885 133 847 q 357 924 277 924 q 457 904 412 924 q 534 851 502 885 q 584 773 566 818 q 603 679 603 729 q 593 610 603 640 q 569 557 583 580 q 535 515 554 533 q 496 480 515 497 l 465 455 q 415 391 425 423 q 406 313 406 358 l 406 257 l 314 257 l 314 313 q 316 366 314 343 q 327 413 318 390 q 354 461 336 436 q 406 521 373 487 q 474 608 455 569 q 493 685 493 646 q 481 742 493 715 q 451 789 470 769 q 406 820 431 809 q 351 832 380 832 q 242 799 293 832 q 159 713 191 767 l 89 779 "},"Ű":{"x_min":70,"x_max":635,"ha":695,"o":"m 70 865 l 179 865 q 181 862 181 865 q 175 846 181 856 q 166 820 168 835 l 166 296 q 179 184 166 224 q 218 119 193 145 q 277 81 243 93 q 350 66 311 68 q 423 79 389 68 q 483 118 457 91 q 523 185 508 145 q 538 300 538 225 l 538 865 l 631 865 l 631 302 q 612 159 631 218 q 554 62 593 101 q 464 4 515 23 q 349 -15 412 -15 q 235 4 286 -15 q 147 61 183 23 q 90 152 110 98 q 70 298 70 207 l 70 865 m 571 1125 l 635 1036 l 433 896 l 389 952 l 571 1125 m 323 1125 l 389 1036 l 186 896 l 142 952 l 323 1125 "},"c":{"x_min":78,"x_max":635,"ha":695,"o":"m 635 528 l 564 447 q 557 456 557 451 q 556 469 558 460 q 546 489 554 477 q 512 523 537 502 q 383 562 465 562 q 306 545 343 562 q 242 497 269 528 q 197 423 214 466 q 181 325 181 379 q 197 226 181 271 q 243 147 214 180 q 312 95 272 114 q 401 77 353 77 q 566 153 497 77 l 625 84 q 393 -15 530 -15 q 267 9 325 -15 q 167 79 209 34 q 101 184 125 123 q 78 316 78 244 q 101 448 78 387 q 167 553 125 509 q 268 622 209 597 q 397 647 328 647 q 534 615 472 647 q 635 528 596 584 "},"¶":{"x_min":89,"x_max":606,"ha":695,"o":"m 606 924 l 606 -94 l 525 -94 l 525 843 l 420 843 l 420 -94 l 337 -94 l 337 448 q 239 471 284 450 q 161 525 194 492 q 108 599 127 557 q 89 689 89 642 q 106 779 89 736 q 164 855 123 822 q 271 905 205 887 q 432 924 336 924 l 606 924 "},"•":{"x_min":238,"x_max":474,"ha":695,"o":"m 439 493 q 474 411 474 458 q 439 330 474 364 q 356 296 404 296 q 272 330 307 296 q 238 411 238 364 q 273 493 238 459 q 356 528 308 528 q 439 493 401 528 "},"(":{"x_min":193,"x_max":590.171875,"ha":695,"o":"m 574 837 l 559 838 q 547 834 555 838 q 357 638 425 762 q 289 355 289 513 q 309 202 289 277 q 369 57 330 126 q 464 -68 408 -10 q 590 -166 520 -126 l 545 -240 q 397 -133 462 -196 q 286 7 331 -70 q 217 174 241 84 q 193 358 193 264 q 217 539 193 452 q 287 700 241 626 q 397 831 333 775 q 544 925 462 888 l 586 840 q 574 837 577 837 "},"­":{"x_min":99,"x_max":599,"ha":695,"o":"m 99 483 l 599 483 l 599 390 l 99 390 l 99 483 "},":":{"x_min":249,"x_max":414,"ha":695,"o":"m 389 564 q 414 507 414 539 q 389 451 414 475 q 330 428 364 428 q 273 451 298 428 q 249 507 249 475 q 273 564 249 540 q 330 588 298 588 q 389 564 362 588 m 389 121 q 414 64 414 96 q 389 8 414 32 q 330 -15 365 -15 q 272 7 296 -15 q 249 64 249 30 q 273 121 249 97 q 330 145 298 145 q 389 121 362 145 "},"Û":{"x_min":70,"x_max":631,"ha":695,"o":"m 70 865 l 179 865 q 181 862 181 865 q 175 846 181 856 q 166 820 168 835 l 166 296 q 179 184 166 224 q 218 119 193 145 q 277 81 243 93 q 350 66 311 68 q 423 79 389 68 q 483 118 457 91 q 523 185 508 145 q 538 300 538 225 l 538 865 l 631 865 l 631 302 q 612 159 631 218 q 554 62 593 101 q 464 4 515 23 q 349 -15 412 -15 q 235 4 286 -15 q 147 61 183 23 q 90 152 110 98 q 70 298 70 207 l 70 865 m 158 961 l 339 1099 l 370 1099 l 541 962 l 495 909 l 352 1008 l 196 914 l 158 961 "},"V":{"x_min":34.859375,"x_max":664.078125,"ha":695,"o":"m 34 867 l 134 867 l 358 200 l 568 865 l 664 865 l 373 -6 l 329 -6 l 34 867 "},"ś":{"x_min":79,"x_max":611,"ha":695,"o":"m 600 549 l 541 462 q 534 473 534 463 q 531 487 534 483 q 461 546 506 519 q 356 574 415 574 q 306 567 330 574 q 263 550 281 561 q 233 521 244 539 q 222 482 222 504 q 230 452 222 465 q 256 426 238 438 q 307 401 274 413 q 392 373 340 388 q 561 297 512 341 q 611 190 611 254 q 592 111 611 148 q 540 45 574 73 q 456 1 505 17 q 347 -14 408 -14 q 79 86 187 -14 l 135 186 q 141 172 140 181 q 151 151 142 163 q 181 122 159 138 q 249 87 203 106 q 296 73 270 77 q 349 69 323 69 q 405 75 377 69 q 457 95 434 82 q 494 127 480 109 q 508 169 508 146 q 474 230 508 205 q 352 281 441 255 q 271 306 291 299 q 199 340 221 326 q 159 375 177 355 q 130 421 141 396 q 119 478 119 447 q 137 542 119 511 q 187 596 155 573 q 265 635 220 620 q 363 650 310 650 q 600 549 509 650 m 405 971 l 493 912 l 352 725 l 283 766 l 405 971 "}," ":{"x_min":0,"x_max":0,"ha":695},"ʼ":{"x_min":272,"x_max":429,"ha":695,"o":"m 429 840 q 310 631 429 750 l 272 664 q 323 727 303 693 q 344 782 344 761 q 334 801 344 791 q 315 820 325 811 q 296 840 305 829 q 287 866 287 851 q 305 913 287 894 q 353 932 324 932 q 406 906 383 932 q 429 840 429 880 "},"@":{"x_min":43,"x_max":646,"ha":695,"o":"m 604 41 q 409 -15 513 -15 q 274 12 340 -15 q 157 93 209 39 q 74 233 105 148 q 43 434 43 318 q 72 633 43 550 q 150 772 102 717 q 257 852 198 826 q 376 879 316 879 q 484 858 434 879 q 569 795 533 838 q 625 685 605 752 q 646 524 646 617 l 646 243 l 563 243 l 563 296 q 428 232 508 232 q 354 246 387 232 q 295 285 320 261 q 256 340 270 309 q 243 404 243 370 q 313 561 243 505 q 537 617 383 617 l 558 617 q 544 689 558 655 q 503 749 529 723 q 444 789 478 774 q 372 804 410 804 q 283 782 328 804 q 203 716 239 760 q 146 602 168 672 q 124 436 124 533 q 149 271 124 341 q 216 155 175 201 q 311 86 258 109 q 418 64 364 64 q 566 110 497 64 l 604 41 m 563 548 l 539 548 q 379 513 430 548 q 329 423 329 478 q 361 339 329 370 q 432 308 393 308 q 537 360 511 308 q 563 521 563 412 l 563 548 "},"¾":{"x_min":16,"x_max":662,"ha":695,"o":"m 113 -21 l 547 924 l 614 886 l 178 -58 l 113 -21 m 178 950 q 235 940 208 950 q 281 914 261 930 q 311 877 300 898 q 323 830 323 855 q 305 776 323 799 q 260 742 288 752 q 319 710 296 737 q 342 648 342 683 q 328 597 342 620 q 291 556 314 574 q 237 528 268 538 q 174 519 207 519 q 16 591 79 519 l 68 650 q 75 634 72 644 q 83 618 78 623 q 125 590 103 598 q 171 582 147 582 q 242 602 211 582 q 274 648 274 622 q 251 698 274 681 q 175 715 228 715 q 158 715 167 715 q 142 713 150 715 l 142 769 q 157 767 149 766 q 173 768 165 768 q 238 785 218 768 q 259 825 259 802 q 236 870 259 848 q 175 892 214 892 q 71 839 112 892 l 31 880 q 178 950 89 950 m 549 336 l 593 336 l 593 62 l 662 62 l 662 11 l 593 11 l 593 -97 l 529 -97 l 529 11 l 327 11 l 327 50 l 549 336 m 530 227 l 399 62 l 530 62 l 530 227 "},"i":{"x_min":138,"x_max":550,"ha":695,"o":"m 147 635 l 401 635 l 401 81 l 550 81 l 550 0 l 138 0 l 138 81 l 301 81 l 301 554 l 147 554 l 147 635 m 302 890 q 352 911 323 911 q 403 889 381 911 q 425 838 425 867 q 403 788 425 809 q 352 768 381 768 q 302 788 323 768 q 282 838 282 809 q 302 890 282 869 "},"m":{"x_min":53,"x_max":652.234375,"ha":695,"o":"m 53 0 l 53 635 l 145 635 l 145 572 q 201 628 167 606 q 275 650 236 650 q 346 623 315 650 q 386 556 378 597 q 443 624 404 598 q 528 650 482 650 q 624 603 593 650 q 652 487 654 556 l 652 0 l 560 0 l 560 449 q 555 517 560 492 q 541 555 551 542 q 522 572 532 569 q 497 576 512 576 q 461 561 479 576 q 429 524 443 546 q 407 474 415 502 q 399 419 399 445 l 399 0 l 306 0 l 306 441 q 291 547 306 521 q 240 574 276 574 q 176 534 207 574 q 145 423 145 494 l 145 0 l 53 0 "},"ż":{"x_min":70,"x_max":625,"ha":695,"o":"m 99 635 l 592 635 l 592 566 l 206 86 l 582 86 q 603 90 591 86 q 625 94 615 94 l 625 0 l 70 0 l 70 67 l 462 547 l 99 547 l 99 635 m 302 890 q 352 911 323 911 q 403 889 381 911 q 425 838 425 867 q 403 788 425 809 q 352 768 381 768 q 302 788 323 768 q 282 838 282 809 q 302 890 282 869 "},"ő":{"x_min":56,"x_max":639,"ha":695,"o":"m 353 649 q 463 626 411 649 q 554 560 515 603 q 616 455 593 516 q 639 316 639 393 q 616 177 639 238 q 555 72 594 116 q 464 5 516 28 q 351 -17 411 -17 q 237 8 290 -17 q 143 76 183 33 q 79 181 103 120 q 56 313 56 243 q 80 447 56 384 q 145 553 104 509 q 240 623 186 597 q 353 649 294 649 m 539 313 q 523 420 539 373 q 480 498 507 466 q 420 547 454 530 q 349 564 386 564 q 277 547 311 564 q 218 498 243 530 q 177 421 192 466 q 162 319 162 376 q 177 217 162 263 q 218 138 192 171 q 278 87 243 105 q 351 69 313 69 q 424 84 390 69 q 484 132 458 100 q 524 209 509 163 q 539 313 539 255 m 297 971 l 385 912 l 244 725 l 175 766 l 297 971 m 512 971 l 600 912 l 459 725 l 390 766 l 512 971 "},"ž":{"x_min":70,"x_max":625,"ha":695,"o":"m 99 635 l 592 635 l 592 566 l 206 86 l 582 86 q 603 90 591 86 q 625 94 615 94 l 625 0 l 70 0 l 70 67 l 462 547 l 99 547 l 99 635 m 524 914 l 369 720 l 339 720 l 186 915 l 249 964 l 358 821 l 471 962 l 524 914 "},"á":{"x_min":68,"x_max":604,"ha":695,"o":"m 126 559 q 352 649 210 649 q 536 589 469 649 q 604 393 604 530 l 604 0 l 509 0 l 509 69 q 281 -15 408 -15 q 192 0 231 -15 q 124 40 152 15 q 82 97 97 65 q 68 161 68 129 q 150 312 68 257 q 388 374 233 368 l 508 374 l 508 397 q 468 530 508 492 q 345 568 428 568 q 174 496 242 568 l 126 559 m 512 297 l 488 297 q 451 298 469 297 q 417 299 434 299 q 292 288 341 299 q 216 260 244 278 q 178 218 188 241 q 168 169 168 196 q 206 93 168 125 q 302 61 245 61 q 377 74 344 61 q 435 106 410 87 q 476 145 460 125 q 498 180 491 165 q 512 255 512 208 l 512 297 m 405 971 l 493 912 l 352 725 l 283 766 l 405 971 "},"×":{"x_min":118,"x_max":597.171875,"ha":695,"o":"m 530 699 l 597 637 l 416 451 l 593 265 l 529 201 l 352 386 l 179 207 l 118 268 l 293 450 l 118 635 l 183 699 l 355 516 l 530 699 "},"İ":{"x_min":112,"x_max":559,"ha":695,"o":"m 122 865 l 551 865 l 551 784 l 380 784 l 380 78 l 559 78 l 559 -1 l 112 -1 l 112 80 l 283 80 l 283 784 l 122 784 l 122 865 m 278 1078 q 328 1099 299 1099 q 379 1078 357 1099 q 401 1028 401 1057 q 379 977 401 998 q 328 957 357 957 q 279 977 301 957 q 258 1028 258 998 q 278 1078 258 1057 "},"Ě":{"x_min":82,"x_max":612,"ha":695,"o":"m 82 867 l 612 867 l 612 781 l 174 781 l 174 496 l 536 496 l 536 407 l 174 407 l 174 86 l 608 86 l 608 0 l 82 0 l 82 867 m 551 1048 l 369 910 l 338 910 l 168 1046 l 213 1099 l 356 1000 l 512 1094 l 551 1048 "},"K":{"x_min":58,"x_max":654,"ha":695,"o":"m 58 867 l 174 867 q 168 849 174 858 q 162 830 162 840 l 162 466 l 523 872 q 595 865 554 865 l 631 865 l 303 491 l 654 0 l 528 -5 l 230 433 l 162 358 l 162 0 l 58 0 l 58 867 "},"7":{"x_min":110,"x_max":600,"ha":695,"o":"m 600 810 q 436 409 512 610 q 297 0 361 208 l 187 0 q 326 389 254 198 q 479 773 398 581 l 110 773 l 110 865 l 600 865 l 600 810 "},"¨":{"x_min":156,"x_max":544,"ha":695,"o":"m 275 902 q 296 852 296 881 q 275 803 296 824 q 226 783 254 783 q 176 803 197 783 q 156 852 156 824 q 176 901 156 880 q 226 923 197 923 q 275 902 254 923 m 523 902 q 544 852 544 881 q 523 803 544 824 q 474 783 502 783 q 425 803 445 783 q 405 852 405 823 q 425 902 405 881 q 474 923 445 923 q 523 902 502 923 "},"Y":{"x_min":38.3125,"x_max":656.859375,"ha":695,"o":"m 38 865 l 149 865 l 362 445 l 553 865 l 656 865 l 411 341 l 411 0 l 305 0 l 305 341 l 38 865 "},"E":{"x_min":82,"x_max":612,"ha":695,"o":"m 82 867 l 612 867 l 612 781 l 174 781 l 174 496 l 536 496 l 536 407 l 174 407 l 174 86 l 608 86 l 608 0 l 82 0 l 82 867 "},"Ô":{"x_min":40,"x_max":654,"ha":695,"o":"m 352 -14 q 224 18 281 -14 q 125 110 166 51 q 62 252 84 169 q 40 434 40 334 q 62 616 40 534 q 127 755 85 698 q 227 843 169 812 q 355 875 285 875 q 469 848 416 875 q 565 768 522 822 q 631 631 609 715 q 654 433 654 548 q 627 222 654 308 q 558 84 601 137 q 461 8 515 31 q 352 -14 408 -14 m 208 159 q 352 82 273 82 q 426 97 390 82 q 492 154 462 113 q 539 262 522 194 q 557 435 557 330 q 537 604 557 538 q 488 709 518 670 q 425 765 458 748 q 355 783 393 783 q 276 767 312 784 q 208 713 240 751 q 156 610 176 676 q 136 442 136 545 q 156 273 136 347 q 208 159 176 199 m 158 961 l 339 1099 l 370 1099 l 541 962 l 495 909 l 352 1008 l 196 914 l 158 961 "},"‹":{"x_min":201,"x_max":475.71875,"ha":695,"o":"m 201 351 l 411 555 l 466 498 l 298 334 l 475 139 l 420 84 l 201 319 l 201 351 "},"Ï":{"x_min":112,"x_max":559,"ha":695,"o":"m 122 865 l 551 865 l 551 784 l 380 784 l 380 78 l 559 78 l 559 -1 l 112 -1 l 112 80 l 283 80 l 283 784 l 122 784 l 122 865 m 263 1075 q 284 1025 284 1054 q 263 976 284 997 q 213 956 242 956 q 164 976 185 956 q 144 1025 144 997 q 164 1074 144 1053 q 213 1096 185 1096 q 263 1075 242 1096 m 511 1075 q 532 1025 532 1054 q 511 976 532 997 q 461 956 490 956 q 413 976 433 956 q 393 1025 393 996 q 413 1075 393 1054 q 461 1096 433 1096 q 511 1075 490 1096 "},"±":{"x_min":62,"x_max":635.390625,"ha":695,"o":"m 63 112 l 635 112 l 635 24 l 63 24 l 63 112 m 308 800 l 396 800 l 396 562 l 634 562 l 634 477 l 396 477 l 396 216 l 308 216 l 308 477 l 62 477 l 62 562 l 308 562 l 308 800 "},"ì":{"x_min":138,"x_max":550,"ha":695,"o":"m 147 635 l 401 635 l 401 81 l 550 81 l 550 0 l 138 0 l 138 81 l 301 81 l 301 554 l 147 554 l 147 635 m 268 971 l 391 766 l 321 725 l 181 912 l 268 971 "},"|":{"x_min":301,"x_max":394,"ha":695,"o":"m 301 906 l 394 906 l 394 -210 l 301 -210 l 301 906 "},"§":{"x_min":91,"x_max":581,"ha":695,"o":"m 574 809 l 494 740 q 486 755 487 747 q 473 791 483 773 q 444 821 462 808 q 403 843 426 835 q 355 852 380 852 q 307 843 330 852 q 267 820 284 835 q 240 786 250 806 q 231 744 231 767 q 243 691 231 711 q 283 653 256 672 q 352 621 310 634 q 452 582 394 607 q 581 423 581 520 q 552 344 581 381 q 477 290 523 308 q 567 135 567 230 q 548 51 567 90 q 499 -15 530 12 q 424 -59 468 -43 q 331 -75 381 -75 q 197 -45 260 -75 q 91 43 134 -15 l 163 128 q 172 121 171 125 q 176 109 174 116 q 186 89 178 101 q 214 57 193 76 q 324 17 257 17 q 429 48 392 17 q 467 126 467 80 q 459 168 467 149 q 433 203 451 187 q 383 233 415 219 q 305 260 352 246 q 154 335 198 295 q 110 438 110 376 q 141 522 110 484 q 224 579 172 561 q 131 735 131 634 q 148 811 131 776 q 196 874 165 846 q 268 917 226 901 q 357 933 310 933 q 483 900 425 933 q 574 809 540 867 m 274 553 q 227 520 245 544 q 210 466 210 497 q 244 390 210 420 q 355 338 278 360 q 396 326 378 331 q 426 316 415 322 q 477 405 477 342 q 442 478 477 451 q 333 533 408 506 l 274 553 "},"q":{"x_min":58,"x_max":614,"ha":695,"o":"m 519 541 l 519 635 l 614 635 l 614 -232 l 514 -232 l 514 101 q 431 17 484 48 q 319 -14 379 -14 q 217 10 265 -14 q 133 79 169 34 q 78 185 98 123 q 58 324 58 248 q 80 461 58 401 q 140 564 102 521 q 229 628 178 606 q 337 651 280 651 q 509 557 454 651 q 519 541 519 544 m 336 570 q 268 555 300 570 q 211 511 236 540 q 172 437 187 482 q 158 332 158 392 q 172 223 158 271 q 212 142 187 175 q 270 91 237 108 q 340 74 303 74 q 465 133 420 74 q 511 326 511 193 q 463 516 511 463 q 336 570 416 570 "},"b":{"x_min":84,"x_max":635,"ha":695,"o":"m 84 924 l 199 924 l 199 921 q 191 908 199 914 q 184 893 184 901 l 184 537 q 266 619 214 588 q 373 650 319 650 q 473 629 426 650 q 557 568 520 609 q 614 466 593 527 q 635 323 635 405 q 612 174 635 237 q 551 69 589 111 q 466 5 513 26 q 369 -15 419 -15 q 261 11 310 -15 q 181 83 213 37 l 147 0 l 84 0 l 84 924 m 256 97 q 303 78 282 83 q 342 74 324 74 q 403 84 370 74 q 465 121 437 94 q 513 191 494 147 q 532 304 532 236 q 480 497 532 430 q 331 564 428 564 q 257 539 296 564 q 200 472 218 514 q 184 336 184 430 q 186 237 184 278 q 197 170 189 197 q 220 126 206 143 q 256 97 234 110 "},"®":{"x_min":19,"x_max":691,"ha":695,"o":"m 591 128 q 353 26 492 26 q 223 53 284 26 q 116 130 162 81 q 45 242 71 178 q 19 380 19 306 q 45 518 19 453 q 117 631 71 583 q 224 708 163 680 q 355 736 285 736 q 484 708 423 736 q 591 631 545 680 q 663 518 636 583 q 691 380 691 453 q 591 128 691 233 m 357 678 q 250 654 300 678 q 163 591 200 631 q 104 496 125 551 q 83 379 83 442 q 104 263 83 318 q 163 169 125 209 q 250 107 200 130 q 357 84 300 84 q 462 107 412 84 q 549 171 511 131 q 608 265 586 212 q 631 381 631 319 q 609 496 631 442 q 550 590 588 549 q 463 654 513 630 q 357 678 413 678 m 215 184 l 215 590 l 345 590 q 473 556 435 590 q 512 471 512 523 q 491 406 512 437 q 432 364 471 375 l 521 190 l 455 181 l 368 355 l 279 355 l 279 184 l 215 184 m 350 411 q 448 471 448 411 q 346 532 448 532 l 279 532 l 279 411 l 350 411 "},"Ŋ":{"x_min":71,"x_max":624,"ha":695,"o":"m 415 73 q 524 236 524 73 l 524 586 q 483 747 524 701 q 379 793 443 793 q 304 777 341 793 q 237 731 266 761 q 189 662 207 702 q 171 573 171 622 l 171 0 l 71 0 l 71 865 l 171 865 l 171 753 q 268 846 208 811 q 395 881 328 881 q 488 863 446 881 q 560 810 530 846 q 607 720 590 775 q 624 589 624 665 l 624 243 q 566 48 624 112 q 412 -15 509 -15 q 291 19 348 -15 l 339 106 q 347 97 343 103 q 415 73 364 73 "},"L":{"x_min":92,"x_max":610,"ha":695,"o":"m 92 865 l 204 865 q 198 842 204 855 q 192 817 192 830 l 192 85 l 610 85 l 610 0 l 92 0 l 92 865 "},"ď":{"x_min":0,"x_max":708,"ha":695,"o":"m 430 541 l 430 924 l 524 924 l 524 58 q 529 0 524 20 l 431 0 q 425 47 425 16 l 425 101 q 346 17 395 49 q 239 -14 297 -14 q 144 11 187 -14 q 68 81 100 37 q 18 188 36 126 q 0 323 0 249 q 20 457 0 396 q 75 560 40 517 q 155 627 109 603 q 251 651 201 651 q 357 621 310 651 q 430 541 404 591 m 257 570 q 193 551 222 570 q 142 501 163 533 q 108 426 120 469 q 97 333 97 383 q 108 237 97 283 q 140 154 119 190 q 193 96 162 118 q 261 74 223 74 q 312 85 285 74 q 365 121 340 96 q 405 189 389 147 q 421 292 421 231 q 420 363 421 335 q 418 411 420 392 q 411 447 416 431 q 397 482 406 463 q 374 516 389 500 q 339 544 358 532 q 299 563 319 556 q 257 570 278 570 m 708 840 q 589 631 708 750 l 551 664 q 602 727 582 693 q 623 782 623 761 q 613 801 623 791 q 594 820 604 811 q 575 840 584 829 q 566 866 566 851 q 584 913 566 894 q 632 932 603 932 q 685 906 662 932 q 708 840 708 880 "}," ":{"x_min":0,"x_max":0,"ha":695},"À":{"x_min":20.75,"x_max":670.8125,"ha":695,"o":"m 20 0 l 326 881 l 337 881 l 670 0 l 570 0 l 474 253 l 200 253 l 116 0 l 20 0 m 452 328 l 330 658 l 219 328 l 452 328 m 254 1099 l 467 975 l 435 917 l 199 1001 l 254 1099 "},"+":{"x_min":62,"x_max":634,"ha":695,"o":"m 308 727 l 396 727 l 396 489 l 634 489 l 634 404 l 396 404 l 396 144 l 308 144 l 308 404 l 62 404 l 62 489 l 308 489 l 308 727 "},"½":{"x_min":7,"x_max":686,"ha":695,"o":"m 106 -21 l 540 924 l 607 886 l 171 -58 l 106 -21 m 365 232 q 435 301 391 277 q 539 326 478 326 q 593 315 569 326 q 636 287 617 305 q 665 246 655 269 q 676 198 676 223 q 671 159 676 175 q 653 125 666 142 q 615 89 639 109 q 552 42 591 70 q 456 -41 491 -2 l 659 -41 q 672 -36 665 -41 q 686 -31 679 -31 l 686 -102 l 375 -102 l 375 -53 q 435 16 399 -20 q 520 89 471 53 l 552 113 q 609 193 609 161 q 586 247 609 227 q 526 268 563 268 q 429 221 463 268 q 422 209 424 217 q 417 198 420 202 l 365 232 m 203 940 l 203 519 l 132 519 l 132 852 l 25 825 l 7 859 l 155 940 l 203 940 "},"":{"x_min":70,"x_max":643,"ha":695,"o":"m 87 865 l 621 865 l 621 796 l 192 86 l 600 86 q 621 90 609 86 q 643 94 633 94 l 643 0 l 70 0 l 70 67 l 505 777 l 87 777 l 87 865 m 550 1048 l 368 910 l 337 910 l 167 1046 l 212 1099 l 355 1000 l 511 1094 l 550 1048 "},"Ë":{"x_min":82,"x_max":612,"ha":695,"o":"m 82 867 l 612 867 l 612 781 l 174 781 l 174 496 l 536 496 l 536 407 l 174 407 l 174 86 l 608 86 l 608 0 l 82 0 l 82 867 m 267 1075 q 288 1025 288 1054 q 267 976 288 997 q 217 956 246 956 q 168 976 189 956 q 148 1025 148 997 q 168 1074 148 1053 q 217 1096 189 1096 q 267 1075 246 1096 m 515 1075 q 536 1025 536 1054 q 515 976 536 997 q 465 956 494 956 q 417 976 437 956 q 397 1025 397 996 q 417 1075 397 1054 q 465 1096 437 1096 q 515 1075 494 1096 "},"'":{"x_min":286,"x_max":443,"ha":695,"o":"m 330 761 l 321 848 q 339 906 321 887 q 380 925 357 925 q 423 904 404 925 q 443 837 443 883 q 431 770 441 813 q 397 663 420 727 l 362 572 l 286 590 l 316 684 q 327 724 323 705 q 330 761 330 742 "},"Š":{"x_min":72,"x_max":632,"ha":695,"o":"m 604 762 l 542 679 q 535 690 535 681 q 531 703 534 699 q 460 766 505 742 q 348 790 415 790 q 242 752 284 790 q 200 663 200 715 q 210 611 200 633 q 242 568 220 588 q 305 525 263 547 q 413 477 347 504 q 519 425 477 451 q 586 370 561 400 q 621 309 611 341 q 632 236 632 276 q 615 146 632 191 q 563 65 598 101 q 473 8 527 30 q 342 -14 419 -14 q 72 97 174 -14 l 128 197 q 135 183 135 192 q 140 167 135 173 q 226 100 172 127 q 356 74 280 74 q 428 87 395 74 q 484 121 460 100 q 522 173 508 143 q 536 236 536 202 q 526 283 536 262 q 497 324 517 305 q 438 361 476 342 q 337 405 399 380 q 224 458 269 431 q 151 513 179 485 q 111 573 123 541 q 100 642 100 605 q 120 731 100 690 q 175 804 140 773 q 259 853 211 836 q 363 871 308 871 q 497 842 434 871 q 604 762 559 813 m 558 1049 l 376 911 l 345 911 l 175 1047 l 220 1100 l 363 1001 l 519 1095 l 558 1049 "},"˛":{"x_min":383,"x_max":589,"ha":695,"o":"m 494 0 l 585 0 q 469 -141 469 -103 q 480 -168 469 -157 q 508 -180 491 -180 q 589 -148 548 -180 l 589 -212 q 495 -244 550 -244 q 411 -219 440 -244 q 383 -159 383 -195 q 494 0 383 -90 "},"ð":{"x_min":56,"x_max":639,"ha":695,"o":"m 356 69 q 424 83 391 69 q 482 129 456 98 q 523 208 508 160 q 539 322 539 255 q 522 435 539 388 q 478 510 505 481 q 418 551 451 538 q 352 564 385 564 q 284 548 318 564 q 223 502 250 533 q 179 427 196 472 q 163 322 163 381 q 178 218 163 265 q 219 138 193 171 q 280 87 245 105 q 356 69 316 69 m 481 791 q 639 351 639 613 q 620 199 639 267 q 566 83 601 131 q 477 9 530 35 q 355 -17 423 -17 q 240 7 294 -17 q 145 75 186 31 q 80 179 104 119 q 56 309 56 238 q 79 441 56 379 q 142 548 103 503 q 232 621 182 594 q 336 649 283 649 q 512 576 444 649 q 461 677 490 629 q 393 766 432 725 l 215 717 l 190 783 l 334 822 q 193 910 272 874 l 305 933 q 426 847 368 898 l 576 887 l 600 826 l 481 791 "},"ş":{"x_min":79,"x_max":611,"ha":695,"o":"m 418 -151 q 352 -118 418 -118 l 311 -118 l 325 -14 q 79 86 179 -8 l 135 186 q 141 172 140 181 q 151 151 142 163 q 181 122 159 138 q 249 87 203 106 q 296 73 270 77 q 349 69 323 69 q 405 75 377 69 q 457 95 434 82 q 494 127 480 109 q 508 169 508 146 q 474 230 508 205 q 352 281 441 255 q 271 306 291 299 q 199 340 221 326 q 159 375 177 355 q 130 421 141 396 q 119 478 119 447 q 137 542 119 511 q 187 596 155 573 q 265 635 220 620 q 363 650 310 650 q 600 549 509 650 l 541 462 q 534 473 534 463 q 531 487 534 483 q 461 546 506 519 q 356 574 415 574 q 306 567 330 574 q 262 550 281 561 q 233 521 244 539 q 222 482 222 504 q 230 452 222 465 q 256 426 238 438 q 307 401 274 413 q 392 373 340 388 q 561 297 512 341 q 611 183 611 252 q 595 115 611 148 q 551 55 580 81 q 480 11 522 29 q 386 -12 438 -7 l 380 -65 l 402 -66 q 497 -142 497 -73 q 457 -213 497 -181 q 336 -246 417 -246 q 182 -194 254 -246 l 216 -136 q 355 -186 276 -186 q 404 -175 390 -186 q 418 -151 418 -165 "},"ı":{"x_min":138,"x_max":550,"ha":695,"o":"m 147 635 l 401 635 l 401 81 l 550 81 l 550 0 l 138 0 l 138 81 l 301 81 l 301 554 l 147 554 l 147 635 "},"Ć":{"x_min":57,"x_max":652,"ha":695,"o":"m 553 668 q 549 693 553 685 q 476 766 521 739 q 382 794 432 794 q 293 769 334 794 q 219 698 251 745 q 169 585 187 652 q 151 434 151 519 q 169 284 151 352 q 219 169 187 217 q 296 95 252 121 q 390 69 340 69 q 489 97 441 69 q 566 175 537 126 l 639 127 q 589 66 618 93 q 527 22 559 40 q 461 -4 494 4 q 395 -14 429 -14 q 263 11 320 -14 q 157 91 205 37 q 83 229 109 145 q 57 427 57 312 q 87 640 57 555 q 168 777 118 726 q 274 850 218 828 q 383 872 330 872 q 467 859 426 872 q 544 824 508 846 q 607 771 579 802 q 652 700 635 739 l 558 655 q 553 668 553 659 m 427 1099 l 483 1001 l 247 917 l 216 975 l 427 1099 "},"ä":{"x_min":68,"x_max":604,"ha":695,"o":"m 126 559 q 352 649 210 649 q 536 589 469 649 q 604 393 604 530 l 604 0 l 509 0 l 509 69 q 281 -15 408 -15 q 192 0 231 -15 q 124 40 152 15 q 82 97 97 65 q 68 161 68 129 q 150 312 68 257 q 388 374 233 368 l 508 374 l 508 397 q 468 530 508 492 q 345 568 428 568 q 174 496 242 568 l 126 559 m 512 297 l 488 297 q 451 298 469 297 q 417 299 434 299 q 292 288 341 299 q 216 260 244 278 q 178 218 188 241 q 168 169 168 196 q 206 93 168 125 q 302 61 245 61 q 377 74 344 61 q 435 106 410 87 q 476 145 460 125 q 498 180 491 165 q 512 255 512 208 l 512 297 m 292 902 q 313 852 313 881 q 292 803 313 824 q 243 783 271 783 q 193 803 214 783 q 173 852 173 824 q 193 901 173 880 q 243 923 214 923 q 292 902 271 923 m 540 902 q 561 852 561 881 q 540 803 561 824 q 491 783 519 783 q 442 803 462 783 q 422 852 422 823 q 442 902 422 881 q 491 923 462 923 q 540 902 519 923 "},"¹":{"x_min":169,"x_max":415,"ha":695,"o":"m 415 879 l 415 351 l 326 351 l 326 767 l 191 733 l 169 776 l 353 879 l 415 879 "},"£":{"x_min":55,"x_max":653,"ha":695,"o":"m 581 794 l 519 718 q 505 739 508 728 q 485 758 501 750 q 403 784 451 784 q 346 774 374 784 q 297 744 319 764 q 262 691 275 723 q 249 614 249 658 q 260 525 249 580 l 399 525 l 399 444 l 279 444 q 298 310 298 366 q 247 125 298 205 q 269 127 257 126 q 298 128 282 128 q 340 118 312 128 q 400 99 368 109 q 464 80 432 89 q 518 71 496 71 q 616 110 569 71 l 653 37 q 508 -21 579 -21 q 457 -11 489 -21 q 388 10 425 -1 q 315 32 351 22 q 250 42 279 42 q 91 -11 189 42 l 55 68 q 104 92 86 83 q 132 109 122 101 q 147 123 142 116 q 157 138 151 129 q 206 307 206 214 q 185 444 206 358 l 94 444 l 94 525 l 165 525 q 156 613 156 572 q 175 717 156 670 q 228 796 194 763 q 306 846 261 828 q 400 865 350 865 q 581 794 503 865 "},"ů":{"x_min":85.625,"x_max":610.9375,"ha":695,"o":"m 87 635 l 187 635 l 187 281 q 198 179 187 220 q 229 113 209 138 q 275 77 249 88 q 332 66 301 66 q 396 82 365 68 q 451 122 427 96 q 490 187 476 147 q 504 285 504 228 l 504 635 l 604 635 l 604 56 q 610 0 604 25 l 506 0 q 504 21 505 9 q 504 48 502 33 l 505 97 q 422 14 474 44 q 307 -15 370 -15 q 219 2 258 -15 q 149 55 180 19 q 101 147 117 91 q 85 280 85 203 l 87 635 m 445 925 q 483 840 483 888 q 472 792 483 815 q 444 754 462 770 q 403 727 427 737 q 355 718 380 718 q 307 727 330 718 q 267 754 284 737 q 239 792 249 770 q 229 840 229 815 q 239 887 229 864 q 267 925 249 909 q 307 952 284 942 q 355 962 330 962 q 445 925 406 962 m 356 904 q 316 885 333 904 q 300 840 300 866 q 316 794 300 813 q 356 776 333 776 q 397 794 380 776 q 415 840 415 813 q 397 885 415 866 q 356 904 380 904 "},"W":{"x_min":23.921875,"x_max":678.140625,"ha":695,"o":"m 23 865 l 113 865 l 207 280 l 346 801 l 376 801 l 517 277 l 596 865 l 678 865 l 540 -6 l 503 -6 l 354 564 l 203 -6 l 162 -6 l 23 865 "},"Ğ":{"x_min":50,"x_max":639,"ha":695,"o":"m 636 729 l 567 660 q 549 686 559 665 q 485 760 529 732 q 383 789 441 789 q 300 772 343 789 q 223 715 258 755 q 167 609 189 675 q 146 443 146 543 q 164 283 146 352 q 214 167 182 213 q 289 96 246 120 q 385 72 333 72 q 549 124 475 72 l 549 330 l 392 330 l 392 415 l 639 415 l 639 76 q 384 -14 515 -14 q 245 17 307 -14 q 139 105 183 48 q 72 243 95 162 q 50 422 50 323 q 84 650 50 558 q 172 789 118 741 q 282 855 226 837 q 384 874 338 874 q 531 834 463 874 q 636 729 599 794 m 203 1097 q 270 1027 229 1055 q 358 1000 311 1000 q 524 1097 449 1000 l 563 1038 q 473 958 526 988 q 361 928 419 928 q 152 1034 242 928 l 203 1097 "},"v":{"x_min":56.109375,"x_max":635,"ha":695,"o":"m 70 600 l 56 635 l 174 635 q 172 617 174 625 q 170 604 170 610 q 171 600 170 601 l 355 136 l 458 372 q 513 514 492 448 q 545 635 533 579 l 635 635 q 539 357 607 518 l 385 -4 l 307 -4 l 70 600 "},">":{"x_min":55.21875,"x_max":647,"ha":695,"o":"m 58 688 l 58 787 l 647 477 l 647 410 l 55 65 l 55 171 l 540 442 l 58 688 "},"û":{"x_min":85.625,"x_max":610.9375,"ha":695,"o":"m 87 635 l 187 635 l 187 281 q 198 179 187 220 q 229 113 209 138 q 275 77 249 88 q 332 66 301 66 q 396 82 365 68 q 451 122 427 96 q 490 187 476 147 q 504 285 504 228 l 504 635 l 604 635 l 604 56 q 610 0 604 25 l 506 0 q 504 21 505 9 q 504 48 502 33 l 505 97 q 422 14 474 44 q 307 -15 370 -15 q 219 2 258 -15 q 149 55 180 19 q 101 147 117 91 q 85 280 85 203 l 87 635 m 186 756 l 340 951 l 371 951 l 524 755 l 460 706 l 351 849 l 238 708 l 186 756 "},"Ź":{"x_min":70,"x_max":643,"ha":695,"o":"m 87 865 l 621 865 l 621 796 l 192 86 l 600 86 q 621 90 609 86 q 643 94 633 94 l 643 0 l 70 0 l 70 67 l 505 777 l 87 777 l 87 865 m 427 1099 l 483 1001 l 247 917 l 216 975 l 427 1099 "},"Ð":{"x_min":42,"x_max":648,"ha":695,"o":"m 110 865 l 303 865 q 462 833 397 865 q 568 743 527 801 q 628 604 609 685 q 648 425 648 523 q 634 300 648 362 q 594 185 620 239 q 530 89 568 132 q 443 25 492 47 q 286 -1 389 -1 l 110 -1 l 110 418 l 42 418 l 42 499 l 110 499 l 110 865 m 199 418 l 199 80 l 282 80 q 485 170 415 80 q 555 425 555 261 q 493 688 555 592 q 297 784 431 784 l 199 784 l 199 499 l 345 499 l 345 418 l 199 418 "},"ˉ":{"x_min":171,"x_max":524,"ha":695,"o":"m 171 863 l 524 863 l 524 785 l 171 785 l 171 863 "},"Ĺ":{"x_min":92,"x_max":610,"ha":695,"o":"m 92 865 l 204 865 q 198 842 204 855 q 192 817 192 830 l 192 85 l 610 85 l 610 0 l 92 0 l 92 865 m 427 1099 l 483 1001 l 247 917 l 216 975 l 427 1099 "},"r":{"x_min":137,"x_max":636,"ha":695,"o":"m 137 635 l 239 635 l 237 512 q 329 614 266 579 q 465 650 393 650 q 636 580 569 650 l 590 485 q 562 519 574 505 q 535 543 549 533 q 502 558 520 552 q 460 564 485 564 q 373 542 414 564 q 303 485 333 520 q 255 404 273 450 q 237 308 237 358 l 237 -1 l 137 -1 l 137 635 "},"":{"x_min":70,"x_max":625,"ha":695,"o":"m 99 635 l 592 635 l 592 566 l 206 86 l 582 86 q 603 90 591 86 q 625 94 615 94 l 625 0 l 70 0 l 70 67 l 462 547 l 99 547 l 99 635 m 524 914 l 369 720 l 339 720 l 186 915 l 249 964 l 358 821 l 471 962 l 524 914 "},"Č":{"x_min":57,"x_max":652,"ha":695,"o":"m 553 668 q 549 693 553 685 q 476 766 521 739 q 382 794 432 794 q 293 769 334 794 q 219 698 251 745 q 169 585 187 652 q 151 434 151 519 q 169 284 151 352 q 219 169 187 217 q 296 95 252 121 q 390 69 340 69 q 489 97 441 69 q 566 175 537 126 l 639 127 q 589 66 618 93 q 527 22 559 40 q 461 -4 494 4 q 395 -14 429 -14 q 263 11 320 -14 q 157 91 205 37 q 83 229 109 145 q 57 427 57 312 q 87 640 57 555 q 168 777 118 726 q 274 850 218 828 q 383 872 330 872 q 467 859 426 872 q 544 824 508 846 q 607 771 579 802 q 652 700 635 739 l 558 655 q 553 668 553 659 m 574 1048 l 392 910 l 361 910 l 191 1046 l 236 1099 l 379 1000 l 535 1094 l 574 1048 "},"x":{"x_min":65,"x_max":633,"ha":695,"o":"m 502 635 l 605 635 l 399 326 l 633 0 l 519 0 l 344 247 l 178 0 l 65 0 l 288 322 l 69 635 l 178 635 l 344 400 l 502 635 "},"è":{"x_min":68,"x_max":618,"ha":695,"o":"m 359 650 q 456 631 409 650 q 539 577 504 613 q 596 483 574 540 q 618 348 618 426 q 617 325 618 337 q 615 303 616 314 l 164 303 q 186 191 166 236 q 237 118 207 146 q 305 78 268 90 q 380 67 343 67 q 544 137 479 67 l 600 82 q 377 -14 519 -14 q 250 7 308 -14 q 152 70 193 29 q 90 174 112 112 q 68 315 68 236 q 90 458 68 395 q 153 563 113 520 q 245 627 193 605 q 359 650 298 650 m 168 381 l 516 381 q 517 391 516 386 q 518 403 518 396 q 504 469 518 437 q 469 523 491 500 q 417 560 447 546 q 352 574 387 574 q 234 527 287 574 q 168 381 182 480 m 337 971 l 460 766 l 390 725 l 250 912 l 337 971 "},"Ø":{"x_min":40,"x_max":654,"ha":695,"o":"m 208 712 q 156 607 176 676 q 136 447 136 538 q 183 201 136 294 l 466 733 q 349 783 413 783 q 277 765 313 783 q 208 712 241 748 m 573 756 q 654 430 654 647 q 627 217 654 302 q 558 81 601 133 q 460 7 515 29 q 352 -14 406 -14 q 271 0 312 -14 q 191 41 230 12 l 121 -87 l 49 -50 l 131 102 q 40 434 40 220 q 62 614 40 533 q 125 753 84 695 q 224 843 166 811 q 352 875 281 875 q 435 861 394 875 q 512 819 476 847 l 576 940 l 651 900 l 573 756 m 519 655 l 237 127 q 344 82 288 82 q 502 168 448 82 q 557 435 557 255 q 519 655 557 573 "},"Ń":{"x_min":70,"x_max":630.71875,"ha":695,"o":"m 70 0 l 70 865 l 164 865 l 528 223 l 528 866 l 630 866 q 625 848 630 858 q 621 828 621 838 l 621 0 l 544 0 l 163 680 l 163 0 l 70 0 m 427 1099 l 483 1001 l 247 917 l 216 975 l 427 1099 "},"÷":{"x_min":99,"x_max":599,"ha":695,"o":"m 99 483 l 599 483 l 599 390 l 99 390 l 99 483 m 398 691 q 417 647 417 670 q 398 604 417 622 q 354 586 380 586 q 311 604 329 586 q 293 647 293 622 q 312 692 293 673 q 354 711 330 711 q 398 691 379 711 m 398 263 q 417 219 417 242 q 398 176 417 194 q 355 158 380 158 q 311 175 330 158 q 292 219 292 192 q 312 264 292 246 q 355 283 332 283 q 398 263 379 283 "},"h":{"x_min":97,"x_max":601,"ha":695,"o":"m 97 0 l 97 924 l 210 924 q 211 922 210 922 q 212 921 212 922 q 206 909 212 917 q 197 890 199 901 l 197 522 q 291 615 234 580 q 405 650 347 650 q 484 635 449 650 q 546 588 520 620 q 587 506 573 556 q 601 384 601 456 l 601 0 l 501 0 l 501 381 q 466 521 501 481 q 384 562 432 562 q 320 548 352 562 q 258 509 288 534 q 212 448 228 484 q 197 365 197 412 l 197 0 l 97 0 "},".":{"x_min":249,"x_max":414,"ha":695,"o":"m 389 121 q 414 64 414 96 q 389 8 414 32 q 330 -15 365 -15 q 272 7 296 -15 q 249 64 249 30 q 273 121 249 97 q 330 145 298 145 q 389 121 362 145 "},"f":{"x_min":87,"x_max":671,"ha":695,"o":"m 476 932 q 671 844 597 932 l 625 753 q 614 763 614 753 q 611 780 614 774 q 552 831 589 811 q 472 851 515 851 q 409 840 436 851 q 362 806 383 830 q 331 743 341 783 q 321 645 321 703 l 321 597 l 529 597 l 529 516 l 321 516 l 321 0 l 225 0 l 225 516 l 87 516 l 87 597 l 225 597 l 225 659 q 243 785 225 733 q 297 869 262 837 q 378 916 333 901 q 476 932 423 932 "},"“":{"x_min":110,"x_max":592,"ha":695,"o":"m 398 625 q 544 886 398 737 l 592 842 q 527 765 553 808 q 502 697 502 723 q 513 672 502 683 q 538 649 524 661 q 563 623 553 637 q 574 590 574 608 q 550 533 574 557 q 490 510 526 510 q 426 541 454 510 q 398 625 398 573 m 110 625 q 256 886 110 737 l 304 842 q 239 765 265 808 q 214 697 214 723 q 225 672 214 683 q 250 649 236 661 q 275 623 265 637 q 286 590 286 608 q 262 533 286 557 q 202 510 238 510 q 138 541 166 510 q 110 625 110 573 "},"A":{"x_min":20.75,"x_max":670.8125,"ha":695,"o":"m 20 0 l 326 881 l 337 881 l 670 0 l 570 0 l 474 253 l 200 253 l 116 0 l 20 0 m 452 328 l 330 658 l 219 328 l 452 328 "},"‘":{"x_min":253,"x_max":449,"ha":695,"o":"m 253 625 q 400 886 253 737 l 449 842 q 384 765 410 808 q 359 697 359 723 q 370 671 359 683 q 394 648 381 659 q 418 623 407 637 q 430 590 430 608 q 407 533 430 557 q 347 510 384 510 q 282 541 311 510 q 253 625 253 573 "},"O":{"x_min":40,"x_max":654,"ha":695,"o":"m 352 -14 q 224 18 281 -14 q 125 110 166 51 q 62 252 84 169 q 40 434 40 334 q 62 616 40 534 q 127 755 85 698 q 227 843 169 812 q 355 875 285 875 q 469 848 416 875 q 565 768 522 822 q 631 631 609 715 q 654 433 654 548 q 627 222 654 308 q 558 84 601 137 q 461 8 515 31 q 352 -14 408 -14 m 208 159 q 352 82 273 82 q 426 97 390 82 q 492 154 462 113 q 539 262 522 194 q 557 435 557 330 q 537 604 557 538 q 488 709 518 670 q 425 765 458 748 q 355 783 393 783 q 276 767 312 784 q 208 713 240 751 q 156 610 176 676 q 136 442 136 545 q 156 273 136 347 q 208 159 176 199 "},"Đ":{"x_min":42,"x_max":648,"ha":695,"o":"m 110 865 l 303 865 q 462 833 397 865 q 568 743 527 801 q 628 604 609 685 q 648 425 648 523 q 634 300 648 362 q 594 185 620 239 q 530 89 568 132 q 443 25 492 47 q 286 -1 389 -1 l 110 -1 l 110 418 l 42 418 l 42 499 l 110 499 l 110 865 m 199 418 l 199 80 l 282 80 q 485 170 415 80 q 555 425 555 261 q 493 688 555 592 q 297 784 431 784 l 199 784 l 199 499 l 345 499 l 345 418 l 199 418 "},"3":{"x_min":96,"x_max":590,"ha":695,"o":"m 571 648 q 535 534 571 586 q 441 461 500 483 q 549 376 508 437 q 590 237 590 315 q 571 140 590 186 q 517 59 552 94 q 430 5 481 25 q 313 -15 379 -15 q 96 83 186 -15 l 169 171 q 177 152 175 165 q 187 130 180 139 l 207 112 q 252 87 218 101 q 322 74 286 74 q 391 87 359 74 q 447 126 423 101 q 483 182 470 150 q 497 251 497 215 q 440 370 497 326 q 293 413 384 413 q 271 413 281 413 q 250 411 261 412 l 250 489 q 357 502 313 489 q 427 537 400 515 q 466 589 454 559 q 478 654 478 619 q 466 702 478 679 q 436 742 455 725 q 389 770 416 759 q 327 782 361 782 q 179 715 238 782 l 125 774 q 332 868 209 868 q 425 850 382 868 q 501 802 469 833 q 552 732 533 772 q 571 648 571 693 "},"9":{"x_min":94,"x_max":607,"ha":695,"o":"m 300 -14 q 109 65 189 -14 l 177 139 q 188 122 184 134 q 199 105 193 109 q 298 74 239 74 q 453 152 402 74 q 511 407 505 230 q 433 339 480 364 q 331 314 385 314 q 239 334 283 314 q 164 390 196 354 q 112 477 131 426 q 94 589 94 528 q 113 702 94 650 q 166 792 132 754 q 246 852 201 830 q 342 874 291 874 q 538 764 469 874 q 607 415 607 655 q 582 225 607 305 q 516 92 558 144 q 419 13 474 40 q 300 -14 363 -12 m 505 504 q 506 526 506 515 q 506 547 506 536 q 493 646 506 601 q 458 722 480 690 q 406 770 435 753 q 346 788 377 788 q 231 735 275 788 q 188 590 188 682 q 200 510 188 546 q 233 450 213 475 q 279 412 253 425 q 332 399 304 399 q 432 427 388 399 q 505 504 476 455 "},"l":{"x_min":109,"x_max":583,"ha":695,"o":"m 117 924 l 397 924 l 397 81 l 583 81 l 583 0 l 109 0 l 109 81 l 297 81 l 297 843 l 117 843 l 117 924 "},"4":{"x_min":67,"x_max":628.125,"ha":695,"o":"m 436 867 l 517 867 l 517 325 l 628 325 l 628 239 l 517 239 l 517 0 l 417 0 l 417 240 l 67 240 l 67 311 l 436 867 m 418 712 l 162 325 l 418 325 l 418 712 "},"Ü":{"x_min":70,"x_max":631,"ha":695,"o":"m 70 865 l 179 865 q 181 862 181 865 q 175 846 181 856 q 166 820 168 835 l 166 296 q 179 184 166 224 q 218 119 193 145 q 277 81 243 93 q 350 66 311 68 q 423 79 389 68 q 483 118 457 91 q 523 185 508 145 q 538 300 538 225 l 538 865 l 631 865 l 631 302 q 612 159 631 218 q 554 62 593 101 q 464 4 515 23 q 349 -15 412 -15 q 235 4 286 -15 q 147 61 183 23 q 90 152 110 98 q 70 298 70 207 l 70 865 m 278 1075 q 299 1025 299 1054 q 278 976 299 997 q 228 956 257 956 q 179 976 200 956 q 159 1025 159 997 q 179 1074 159 1053 q 228 1096 200 1096 q 278 1075 257 1096 m 526 1075 q 547 1025 547 1054 q 526 976 547 997 q 476 956 505 956 q 428 976 448 956 q 408 1025 408 996 q 428 1075 408 1054 q 476 1096 448 1096 q 526 1075 505 1096 "},"à":{"x_min":68,"x_max":604,"ha":695,"o":"m 126 559 q 352 649 210 649 q 536 589 469 649 q 604 393 604 530 l 604 0 l 509 0 l 509 69 q 281 -15 408 -15 q 192 0 231 -15 q 124 40 152 15 q 82 97 97 65 q 68 161 68 129 q 150 312 68 257 q 388 374 233 368 l 508 374 l 508 397 q 468 530 508 492 q 345 568 428 568 q 174 496 242 568 l 126 559 m 512 297 l 488 297 q 451 298 469 297 q 417 299 434 299 q 292 288 341 299 q 216 260 244 278 q 178 218 188 241 q 168 169 168 196 q 206 93 168 125 q 302 61 245 61 q 377 74 344 61 q 435 106 410 87 q 476 145 460 125 q 498 180 491 165 q 512 255 512 208 l 512 297 m 337 971 l 460 766 l 390 725 l 250 912 l 337 971 "},"Ś":{"x_min":72,"x_max":632,"ha":695,"o":"m 604 762 l 542 679 q 535 690 535 681 q 531 703 534 699 q 460 766 505 742 q 348 790 415 790 q 242 752 284 790 q 200 663 200 715 q 210 611 200 633 q 242 568 220 588 q 305 525 263 547 q 413 477 347 504 q 519 425 477 451 q 586 370 561 400 q 621 309 611 341 q 632 236 632 276 q 615 146 632 191 q 563 65 598 101 q 473 8 527 30 q 342 -14 419 -14 q 72 97 174 -14 l 128 197 q 135 183 135 192 q 140 167 135 173 q 226 100 172 127 q 356 74 280 74 q 428 87 395 74 q 484 121 460 100 q 522 173 508 143 q 536 236 536 202 q 526 283 536 262 q 497 324 517 305 q 438 361 476 342 q 337 405 399 380 q 224 458 269 431 q 151 513 179 485 q 111 573 123 541 q 100 642 100 605 q 120 731 100 690 q 175 804 140 773 q 259 853 211 836 q 363 871 308 871 q 497 842 434 871 q 604 762 559 813 m 427 1099 l 483 1001 l 247 917 l 216 975 l 427 1099 "},"Ť":{"x_min":43,"x_max":645,"ha":695,"o":"m 43 867 l 645 867 l 645 779 l 389 779 l 389 0 l 289 0 l 289 779 l 43 779 l 43 867 m 551 1048 l 369 910 l 338 910 l 168 1046 l 213 1099 l 356 1000 l 512 1094 l 551 1048 "},"ó":{"x_min":56,"x_max":639,"ha":695,"o":"m 353 649 q 463 626 411 649 q 554 560 515 603 q 616 455 593 516 q 639 316 639 393 q 616 177 639 238 q 555 72 594 116 q 464 5 516 28 q 351 -17 411 -17 q 237 8 290 -17 q 143 76 183 33 q 79 181 103 120 q 56 313 56 243 q 80 447 56 384 q 145 553 104 509 q 240 623 186 597 q 353 649 294 649 m 539 313 q 523 420 539 373 q 480 498 507 466 q 420 547 454 530 q 349 564 386 564 q 277 547 311 564 q 218 498 243 530 q 177 421 192 466 q 162 319 162 376 q 177 217 162 263 q 218 138 192 171 q 278 87 243 105 q 351 69 313 69 q 424 84 390 69 q 484 132 458 100 q 524 209 509 163 q 539 313 539 255 m 405 971 l 493 912 l 352 725 l 283 766 l 405 971 "}}}
